<svg width="60" height="60" viewBox="0 0 60 60" fill="none" xmlns="http://www.w3.org/2000/svg">
<path d="M56.4249 0H41.3545C40.3984 0 39.5074 0.369422 38.8337 1.04308L28.2724 11.6045C27.9139 11.963 27.4467 12.1477 26.9468 12.1477H10.2901C9.3339 12.1477 8.4429 12.5171 7.76924 13.1908L1.05435 19.9166C0.0112629 20.9597 -0.282079 22.4483 0.28295 23.8065C0.84791 25.1647 2.10833 26.0122 3.57518 26.0122H13.2129C14.2451 26.0122 15.0817 26.8489 15.0817 27.8811V40.985C15.0817 43.1581 16.8528 44.9183 19.0151 44.9183H32.1189C33.1511 44.9183 33.9877 45.7549 33.9877 46.7872V56.4253C33.9877 57.8916 34.8353 59.1519 36.1934 59.7171C36.6498 59.9022 37.117 60 37.5842 60C38.4969 60 39.3879 59.6409 40.0833 58.9458L46.809 52.2197C47.4827 51.5462 47.8521 50.6554 47.8521 49.6992V32.901C47.8521 32.4881 48.0043 32.1078 48.2976 31.8253L58.9566 21.1662C59.6196 20.5033 59.9996 19.5798 59.9996 18.6453V3.56392C59.9996 1.59721 58.4026 0 56.436 0H56.4249ZM28.9353 15.7225C28.9353 14.6903 29.7719 13.8536 30.8041 13.8536H44.2773C45.3096 13.8536 46.1463 14.6903 46.1463 15.7225V29.1958C46.1463 30.228 45.3096 31.0647 44.2773 31.0647H30.8041C29.7719 31.0647 28.9353 30.228 28.9353 29.1958V15.7225Z" fill="#4058FF"/>
</svg>
