<?xml version="1.0" encoding="UTF-8"?>
<svg version="1.1" xmlns="http://www.w3.org/2000/svg" width="480" height="480">
<path d="M0 0 C158.4 0 316.8 0 480 0 C480 158.4 480 316.8 480 480 C321.6 480 163.2 480 0 480 C0 321.6 0 163.2 0 0 Z " fill="#26C7D9" transform="translate(0,0)"/>
<path d="M0 0 C1.12398193 0.50394287 2.24796387 1.00788574 3.40600586 1.52709961 C6.29116465 2.88256444 9.08215203 4.34165951 11.87670898 5.87283325 C13.9192646 6.89740529 15.99911087 7.67704995 18.13476562 8.48803711 C23.10920798 10.68353832 26.99163895 12.99726906 29.75 17.8125 C32.27127852 28.11840134 31.33166887 39.11607886 30.84863281 49.62646484 C30.68376019 53.59401832 30.6116375 57.5631985 30.53125 61.53320312 C30.36057758 69.29742996 30.08826801 77.05357341 29.75 84.8125 C26.51909292 81.60029571 23.39450092 78.34942703 20.375 74.9375 C9.07424578 62.37492101 -3.52264126 53.01410509 -18.25 44.8125 C-18.83370361 44.47581299 -19.41740723 44.13912598 -20.01879883 43.79223633 C-26.15444124 40.45745549 -32.70689964 38.85572581 -39.4375 37.125 C-40.59958984 36.81755859 -41.76167969 36.51011719 -42.95898438 36.19335938 C-51.67430348 33.90301962 -59.30085008 32.61779356 -68.3125 32.625 C-69.86142944 32.6262085 -69.86142944 32.6262085 -71.44165039 32.62744141 C-78.54687199 32.68456544 -85.32275733 33.13179194 -92.25 34.8125 C-93.42949219 35.09867188 -93.42949219 35.09867188 -94.6328125 35.390625 C-96.50619948 35.86065041 -98.37823637 36.33605108 -100.25 36.8125 C-101.24 36.8125 -102.23 36.8125 -103.25 36.8125 C-103.25 37.4725 -103.25 38.1325 -103.25 38.8125 C-104.178125 39.163125 -105.10625 39.51375 -106.0625 39.875 C-114.35432279 43.45252032 -128.10548636 50.52347271 -132.25 58.8125 C-131.59 58.8125 -130.93 58.8125 -130.25 58.8125 C-127.6332877 61.56239826 -125.49605892 64.75895742 -123.25 67.8125 C-122.81864746 68.38145996 -122.38729492 68.95041992 -121.94287109 69.53662109 C-110.76881168 84.304152 -101.78955066 100.47283566 -95.25 117.8125 C-94.82025879 118.94425659 -94.82025879 118.94425659 -94.38183594 120.09887695 C-86.7047525 140.65486832 -81.6496622 161.00092313 -79.54370117 182.86083984 C-79.44751981 184.81298263 -79.44751981 184.81298263 -78.25 185.8125 C-77.95386821 190.95282308 -77.93543582 196.09635253 -77.89990234 201.24438477 C-77.88355369 202.97141188 -77.85655382 204.69837759 -77.81787109 206.42504883 C-77.39874339 225.25117175 -81.22869397 242.07332068 -94.1875 256.5625 C-105.34347628 267.08592093 -120.12493568 271.50189542 -135.15234375 271.125 C-141.22354103 270.78511492 -146.63459973 269.07861331 -152.25 266.8125 C-153.74273437 266.22855469 -153.74273437 266.22855469 -155.265625 265.6328125 C-169.06283938 259.52880928 -178.51284553 248.41886166 -186.25 235.8125 C-186.79011719 234.966875 -187.33023438 234.12125 -187.88671875 233.25 C-192.73402065 225.10755062 -195.46341611 216.09148746 -198.44897461 207.14916992 C-199.21057157 204.92751662 -200.02185678 202.73305511 -200.859375 200.5390625 C-204.16383419 191.68385445 -205.65774379 182.78427939 -206.60375977 173.42407227 C-206.94371434 169.49250128 -206.94371434 169.49250128 -208.25 165.8125 C-208.36203179 162.85015348 -208.4141541 159.91220445 -208.41796875 156.94921875 C-208.42129715 156.04742386 -208.42462555 155.14562897 -208.42805481 154.21650696 C-208.433132 152.29221099 -208.43546289 150.36790617 -208.43530273 148.44360352 C-208.43744217 145.57747452 -208.45545422 142.71176141 -208.47460938 139.84570312 C-208.50447584 130.35904614 -208.25405145 120.96145366 -207.37890625 111.51171875 C-207.26545113 110.26511726 -207.26545113 110.26511726 -207.14970398 108.99333191 C-205.66595629 94.57499124 -201.00184682 81.03581794 -195.25 67.8125 C-195.98605469 67.67972656 -196.72210938 67.54695313 -197.48046875 67.41015625 C-198.94419922 67.14525391 -198.94419922 67.14525391 -200.4375 66.875 C-201.40042969 66.70097656 -202.36335937 66.52695313 -203.35546875 66.34765625 C-205.07414735 66.02989786 -206.78805843 65.67892605 -208.484375 65.2578125 C-219.85269091 63.42732095 -233.1334373 63.95352081 -244.25 66.8125 C-245.36761719 67.09609375 -246.48523438 67.3796875 -247.63671875 67.671875 C-264.70493703 72.67806867 -278.8787488 82.22357283 -291.25 94.8125 C-292.29027344 95.78316406 -292.29027344 95.78316406 -293.3515625 96.7734375 C-314.97266074 117.06107594 -323.02935459 149.37604707 -324.3500061 177.97840881 C-324.39649885 180.17104482 -324.4147017 182.36156522 -324.41796875 184.5546875 C-324.42129715 185.36253693 -324.42462555 186.17038635 -324.42805481 187.00271606 C-324.43308391 188.70525552 -324.43546439 190.40780469 -324.43530273 192.11035156 C-324.43746518 194.64666151 -324.45559751 197.18251807 -324.47460938 199.71875 C-324.53554614 216.64928922 -322.57399315 233.12919548 -319.75537109 249.80273438 C-319.37283865 252.07534047 -319.00437005 254.34994454 -318.63671875 256.625 C-316.08534046 272.09814694 -311.72911498 286.86367166 -306.8984375 301.77539062 C-306.55554688 302.86142578 -306.21265625 303.94746094 -305.859375 305.06640625 C-305.54967773 306.02877197 -305.23998047 306.9911377 -304.92089844 307.98266602 C-304.2015275 311.01695587 -304.13165155 313.7052786 -304.25 316.8125 C-313.55783351 319.94645068 -322.86585733 323.03059131 -332.26953125 325.8671875 C-336.23878213 327.12611111 -340.12344276 328.57970344 -344.0078125 330.078125 C-346.25 330.8125 -346.25 330.8125 -349.25 330.8125 C-351.06469722 325.60413041 -352.84729739 320.38531178 -354.578125 315.1484375 C-354.87106445 314.26462402 -355.16400391 313.38081055 -355.46582031 312.47021484 C-356.52106778 308.8938064 -357.20331287 305.30834896 -357.73828125 301.62109375 C-358.41648455 297.8987413 -359.50240236 294.31435854 -360.5625 290.6875 C-363.8397607 279.19582242 -366.19738514 267.57993375 -368.25 255.8125 C-368.55067383 254.14960937 -368.55067383 254.14960937 -368.85742188 252.453125 C-372.1478705 233.55192504 -372.6444087 214.83894036 -372.6875 195.6875 C-372.6936734 194.5203949 -372.6998468 193.35328979 -372.70620728 192.15081787 C-372.78193665 169.89029535 -370.85295346 148.12724641 -364.375 126.75 C-364.13136719 125.91662109 -363.88773438 125.08324219 -363.63671875 124.22460938 C-362.13829672 119.23633914 -360.33664225 114.5360768 -358.15625 109.80688477 C-357.04100721 107.35256947 -356.12713743 104.83848889 -355.1875 102.3125 C-350.12147144 90.08523355 -341.86669159 78.77879388 -333.25 68.8125 C-332.56679688 68.008125 -331.88359375 67.20375 -331.1796875 66.375 C-310.46515193 42.61639289 -279.23456912 21.83013756 -247.25 17.8125 C-246.38761719 17.70292969 -245.52523437 17.59335938 -244.63671875 17.48046875 C-222.36015242 15.26756481 -199.50190669 14.93884575 -178.84643555 24.15625 C-178.0450415 24.51074219 -177.24364746 24.86523438 -176.41796875 25.23046875 C-175.70922607 25.55813232 -175.0004834 25.8857959 -174.27026367 26.22338867 C-171.84892825 26.92945301 -170.59182974 26.6872606 -168.25 25.8125 C-166.62906801 24.40421783 -166.62906801 24.40421783 -165.0625 22.5625 C-150.39572281 7.4059232 -131.94152017 -3.08831129 -112.25 -10.1875 C-110.89455078 -10.69603516 -110.89455078 -10.69603516 -109.51171875 -11.21484375 C-72.95542296 -22.11606249 -34.0793388 -15.45533581 0 0 Z " fill="#FCFEFE" transform="translate(450.25,77.1875)"/>
<path d="M0 0 C3.57096437 3.21708501 5.92595011 6.84147129 8.25 11 C8.63768555 11.69279053 9.02537109 12.38558105 9.42480469 13.09936523 C14.11125006 21.72581849 17.60682272 30.8044704 21 40 C21.25797363 40.68481445 21.51594727 41.36962891 21.78173828 42.07519531 C25.15513661 51.10285628 27.23387384 60.0443489 28.63525391 69.55151367 C28.91188615 71.40850481 29.20958728 73.26237246 29.51708984 75.11450195 C30.89328007 83.81141256 31.30472681 92.26516537 31.25 101.0625 C31.26160156 102.9796582 31.26160156 102.9796582 31.2734375 104.93554688 C31.27085937 106.16466797 31.26828125 107.39378906 31.265625 108.66015625 C31.26336914 109.75980713 31.26111328 110.85945801 31.25878906 111.99243164 C30.99668782 115.03849314 30.28804572 117.2445159 29 120 C23.23650476 119.65419029 19.95976661 118.08504212 16 114 C14.46899259 111.74435207 13.14770445 109.63441 11.875 107.25 C11.535896 106.63165283 11.19679199 106.01330566 10.84741211 105.3762207 C9.88066524 103.59358504 8.93961327 101.79708551 8 100 C7.32517578 98.71416016 7.32517578 98.71416016 6.63671875 97.40234375 C4.14183434 92.2583457 3.36198563 87.70127371 3 82 C2.34 82 1.68 82 1 82 C-2.27196334 66.1013909 -4.50828991 50.63036682 -4.4375 34.375 C-4.43717773 33.69011505 -4.43685547 33.0052301 -4.43652344 32.29959106 C-4.39922943 21.22576783 -3.36605005 10.57901443 0 0 Z " fill="#26C7D9" transform="translate(293,181)"/>
</svg>
