<svg width="62" height="60" viewBox="0 0 62 60" fill="none" xmlns="http://www.w3.org/2000/svg">
<path d="M61.581 21.5521C62.1654 19.7877 62.0253 17.8635 61.1917 16.2023C60.358 14.5411 58.8989 13.2789 57.1351 12.6929L20.4234 0.368511C19.5496 0.0719543 18.6255 -0.0475304 17.7049 0.0170174C16.7844 0.0815652 15.886 0.32887 15.0621 0.744472" fill="white"/>
<path d="M15.0621 0.744472C13.3997 1.57644 12.1356 3.03447 11.5479 4.7981L0.351302 38.4532C-0.228541 40.2177 -0.0864 42.1399 0.746668 43.7999C1.57973 45.4599 3.036 46.7227 4.79724 47.3124L41.5253 59.6368C42.3997 59.9297 43.3234 60.0473 44.2434 59.9828C45.1633 59.9183 46.0615 59.673 46.8865 59.2608C47.7098 58.8516 48.4432 58.2824 49.0438 57.5863C49.6444 56.8903 50.1002 56.0815 50.3844 55.2072L61.5974 21.5521" fill="white"/>
<path d="M33.0257 33.0756C31.0045 35.3404 28.4794 37.0985 25.6539 38.208L24.0194 38.8455V23.252L25.6539 23.8895C28.4831 24.9931 31.0136 26.7455 33.042 29.0056C34.3257 26.9054 35.1352 24.5501 35.4138 22.1045C35.6924 19.6589 35.4335 17.1819 34.6551 14.8468C33.8767 12.5116 32.5977 10.3747 30.9074 8.58536C29.2171 6.79603 27.1564 5.3975 24.8693 4.48755L19.5081 2.65687C18.9403 2.47057 18.3414 2.39804 17.7457 2.44348C17.1499 2.48892 16.5689 2.65142 16.036 2.92167C15.5031 3.19192 15.0287 3.56462 14.64 4.01843C14.2514 4.47224 13.956 4.99824 13.7708 5.56634L2.54159 39.2541C2.17495 40.4139 2.27984 41.6713 2.83356 42.7543C3.38728 43.8373 4.34526 44.6585 5.50009 45.0404L30.9825 53.54C33.524 50.8262 35.0987 47.3493 35.4622 43.6491C35.8258 39.9489 34.9578 36.2321 32.993 33.0756H33.0257ZM18.2822 22.3203V39.8099H15.7486V22.3694L18.2822 22.3203Z" fill="#2293C8"/>
<path d="M31.5546 31.0324C30.1194 29.3561 28.3774 27.9692 26.4222 26.946V35.1187C28.3857 34.0873 30.1291 32.6825 31.5546 30.9833" fill="#E43D30"/>
<path d="M56.3342 14.9322L32.944 7.11915C35.882 10.332 37.6435 14.4465 37.9404 18.7901C38.2373 23.1337 37.0521 27.4496 34.5785 31.0324C36.982 34.5082 38.1754 38.6781 37.9745 42.8992C37.7737 47.1203 36.1897 51.1581 33.467 54.3899L42.2608 57.3157C42.8284 57.5043 43.4278 57.5785 44.0243 57.5341C44.6207 57.4897 45.2025 57.3276 45.7359 57.057C46.2694 56.7865 46.744 56.413 47.1322 55.958C47.5205 55.503 47.8148 54.9756 47.998 54.4063L59.2763 20.7348C59.6481 19.5773 59.5476 18.3197 58.9965 17.236C58.4454 16.1522 57.4885 15.3301 56.3342 14.9486V14.9322ZM50.1393 39.7772H46.9683L40.4301 31.0324L46.9683 22.304H50.2373L43.6992 31.0651L50.1393 39.7772Z" fill="#215C9C"/>
</svg>
