<svg width="80" height="60" viewBox="0 0 80 60" fill="none" xmlns="http://www.w3.org/2000/svg">
<path d="M79.0519 25.7633H50.298V18.4035H79.0519V25.7633Z" fill="#E669A2"/>
<path d="M75.3172 25.7633H50.298V7.35588H75.3172V25.7633Z" fill="#F3BE26"/>
<path d="M64.9806 25.7633H50.298V0H64.9806V25.7633Z" fill="#EE9C34"/>
<path d="M67.8692 25.7633H50.298V2.87478H67.8692V25.7633Z" fill="#F3BC87"/>
<path d="M50.2939 2.87912V25.7609H64.9789V2.87912H50.2939Z" fill="#E3721C"/>
<path d="M35.5747 25.7633L50.298 25.7633V29.4435H35.5747V25.7633Z" fill="#AD1B02"/>
<path d="M50.2939 7.35182V25.7609H67.8776V7.35182H50.2939Z" fill="#E88D14"/>
<path d="M50.2939 7.35182V25.7609H64.9789V7.35182H50.2939Z" fill="#D85604"/>
<path d="M59.4798 25.7633H50.298V14.7148H59.4798V25.7633Z" fill="#C14303"/>
<path d="M50.2939 18.4088V25.7609H75.3257V18.4088H50.2939Z" fill="#DB4E18"/>
<path d="M50.2939 18.4088V25.7609H67.8776V18.4088H50.2939Z" fill="#D1390D"/>
<path d="M50.2939 18.4088V25.7609H64.9789V18.4088H50.2939Z" fill="#C22303"/>
<path d="M50.2939 18.4088V25.7609H59.4888V18.4088H50.2939Z" fill="#AD1B02"/>
<path d="M53.4992 39.6246C50.9941 40.07 49.658 41.9628 49.658 45.2473C49.658 48.5876 51.4394 50.8144 54.056 50.8144C55.3364 50.8144 56.4498 50.369 58.7879 49.1999C58.7879 51.9278 58.7879 51.9278 58.7879 51.9278C55.9487 53.2639 54.2786 53.5979 52.0518 53.5979C49.5466 53.5979 47.7652 52.9855 46.3734 51.4824C44.926 50.035 44.1466 48.1422 44.1466 45.9711C44.1466 41.2391 47.7095 37.9545 52.8869 37.9545C56.2828 37.9545 58.6766 39.569 58.6766 41.8515C58.6766 43.3546 57.5632 44.4123 55.9487 44.4123C55.1137 44.4123 54.4456 44.1339 53.4992 43.6329" fill="black"/>
<path d="M40.9734 45.9711C43.2559 43.1319 44.091 41.9628 44.091 40.571C44.091 39.1793 42.9775 37.9545 41.4188 37.9545C40.528 37.9545 39.693 38.4556 39.3033 38.9009C39.3033 44.7463 39.3033 44.7463 39.3033 44.7463C35.5734 49.7567 35.5734 49.7566 35.5734 49.7566C35.5734 38.3999 35.5734 38.3999 35.5734 38.3999C32.0105 38.3999 32.0105 38.3999 32.0105 38.3999C26.1094 48.1422 26.1094 48.1422 26.1094 48.1422C26.1094 38.3999 26.1094 38.3999 26.1094 38.3999C24.1053 38.3999 24.1053 38.3999 24.1053 38.3999C18.7052 39.6246 18.7053 39.6246 18.7053 39.6246C18.7053 41.0164 18.7053 41.0164 18.7053 41.0164C21.6558 41.2948 21.6558 41.2948 21.6558 41.2948C21.6558 53.3752 21.6558 53.3752 21.6558 53.3752C25.3857 53.3752 25.3857 53.3752 25.3857 53.3752C31.0641 44.0226 31.0641 44.0226 31.0641 44.0226C31.0641 53.3752 31.0641 53.3752 31.0641 53.3752C35.2394 53.3752 35.2394 53.3752 35.2394 53.3752" fill="black"/>
<path d="M7.40416 51.4824C7.84952 51.4824 7.96087 51.4824 8.23922 51.4824C11.2454 51.4824 12.9155 49.6453 12.9155 45.9711C12.9155 42.9092 11.5794 41.2391 9.07427 41.2391C8.74025 41.2391 8.23922 41.2948 7.40416 41.4618V51.4824ZM7.40416 58.0515C9.85366 58.6082 9.85366 58.6082 9.85366 58.6082C9.85366 60 9.85366 60 9.85366 60C0.222681 60 0.222682 60 0.222682 60C0.222682 58.6082 0.222682 58.6082 0.222682 58.6082C2.4495 58.0515 2.4495 58.0515 2.4495 58.0515C2.4495 41.2391 2.4495 41.2391 2.4495 41.2391C-3.01559e-07 41.2391 0 41.2391 0 41.2391C0 39.8473 0 39.8473 0 39.8473C5.84539 38.0659 5.84539 38.0659 5.84539 38.0659C7.40416 38.0659 7.40416 38.0659 7.40416 38.0659C7.40416 40.07 7.40416 40.07 7.40416 40.07C10.132 38.3999 11.0784 38.1215 12.5258 38.1215C15.7547 38.1215 18.2042 41.1277 18.2042 45.303C18.2042 50.0907 14.9197 53.3752 9.90933 53.3752C9.35262 53.3752 8.40623 53.3196 7.40416 53.2639" fill="black"/>
</svg>
