<svg width="110" height="56" viewBox="0 0 110 56" fill="none" xmlns="http://www.w3.org/2000/svg">
<path d="M34.6313 6.38396C35.773 6.16514 36.5246 6.16514 36.791 6.45056C36.9623 6.63133 37.0099 6.93578 36.791 7.31634C36.6769 7.51614 36.5437 7.69691 36.3153 7.97282C26.649 19.3707 19.2851 36.1821 17.192 41.0343C17.0302 41.3673 16.8685 41.7003 16.7448 41.9191C16.5545 42.2616 16.2881 42.5375 15.8315 42.5756C15.5746 42.5946 15.213 42.528 14.6803 42.2046C8.26775 38.2467 4.4526 33.3184 4.4526 27.9715C4.4526 18.3146 16.8685 10.0183 34.6218 6.39348M44.5355 13.6623C45.4489 11.5501 47.0187 7.03092 50.6245 5.24227C51.7187 4.69996 53.0697 4.43357 54.2779 4.40503C54.5539 4.40503 54.7441 4.40503 54.8203 4.40503C64.9147 4.40503 74.3051 5.79409 82.1733 8.20115C82.2399 8.22018 82.4207 8.2963 82.4777 8.30581C83.2103 8.55318 83.5719 8.88617 83.5719 9.29528C83.5719 9.65681 83.3816 9.93272 83.1152 10.1896C83.0105 10.2943 82.8393 10.437 82.6205 10.6272C80.8033 12.1495 75.3327 16.1074 65.0384 20.0462C61.423 21.4258 56.9038 23.1478 52.1753 24.1563C49.3972 24.7367 39.103 26.3065 44.545 13.6718M92.6008 14.0333C92.791 13.6908 93.0479 13.4149 93.5141 13.3768C93.771 13.3673 94.123 13.4244 94.6558 13.7479C101.068 17.7057 104.874 22.634 104.874 27.981C104.874 37.6378 92.458 45.9341 74.7047 49.559C73.563 49.7778 72.8114 49.7778 72.545 49.4924C72.3738 49.3116 72.3262 49.0071 72.545 48.6266C72.6592 48.4268 72.7829 48.246 73.0207 47.9701C82.6966 36.5722 90.051 19.7608 92.1441 14.9181C92.3058 14.5851 92.458 14.2521 92.5912 14.0333M64.9623 42.2616C64.0584 44.3738 62.4886 48.893 58.8828 50.6816C57.7982 51.2239 56.4376 51.4808 55.2294 51.5189C54.963 51.5189 54.7727 51.5189 54.6871 51.5189C44.5926 51.5189 35.2117 50.1203 27.3435 47.7227C27.2769 47.7037 27.1057 47.6276 27.0486 47.6181C26.316 47.3802 25.945 47.0377 25.945 46.6286C25.945 46.2671 26.1352 45.9912 26.3921 45.7343C26.5063 45.6201 26.668 45.4774 26.8869 45.2871C28.704 43.7744 34.1747 39.8165 44.4689 35.8777C48.0843 34.4981 52.6035 32.7856 57.332 31.7771C60.1101 31.1967 70.4044 29.6269 64.9623 42.2616ZM54.6775 56C84.8753 56 109.355 43.4604 109.355 28C109.355 12.5396 84.8753 0 54.6775 0C24.4798 0 0 12.5015 0 27.9715C0 43.4414 24.4798 55.9715 54.6775 55.9715V56Z" fill="#003B83"/>
</svg>
