<svg width="49" height="60" viewBox="0 0 49 60" fill="none" xmlns="http://www.w3.org/2000/svg">
<path d="M35.8455 0L23.9891 5.96288L12.1326 0L23.9891 22.5341L35.8455 0Z" fill="#FFB71B"/>
<path d="M40.0761 17.3395L48.5351 13.8033V1.8775L33.8359 8.18709L25.6541 23.5797C28.8017 23.9425 31.6913 25.4954 33.7308 27.9201C35.7702 30.3448 36.8052 33.4578 36.6235 36.621C36.4418 39.7841 35.0571 42.7581 32.7534 44.9333C30.4496 47.1085 27.4012 48.3203 24.2328 48.3203C21.0644 48.3203 18.016 47.1085 15.7123 44.9333C13.4085 42.7581 12.0239 39.7841 11.8422 36.621C11.6605 33.4578 12.6952 30.3448 14.7347 27.9201C16.7742 25.4954 19.6638 23.9425 22.8113 23.5797L14.6298 8.18709L0 1.8775V13.8033L8.59757 17.3395C4.86877 20.5988 2.2232 24.9182 1.01397 29.7208C-0.195262 34.5234 0.0893535 39.5805 1.8301 44.217C3.57084 48.8535 6.68472 52.8487 10.7559 55.6688C14.827 58.489 19.6616 60 24.6141 60C29.5666 60 34.4013 58.489 38.4724 55.6688C42.5435 52.8487 45.6574 48.8535 47.3982 44.217C49.1389 39.5805 49.4237 34.5234 48.2145 29.7208C47.0053 24.9182 44.3595 20.5988 40.6307 17.3395H40.0761Z" fill="#FFB71B"/>
</svg>
