<svg width="60" height="60" viewBox="0 0 60 60" fill="none" xmlns="http://www.w3.org/2000/svg">
<path d="M49.1445 0.0537162L10.9347 1.10855e-05C4.93523 -0.00846868 0.062196 4.84902 0.0537162 10.8499L1.10823e-05 49.0625C-0.00846868 55.0648 4.85043 59.9378 10.8513 59.9463L49.0611 60C55.0619 60.0085 59.9336 55.1496 59.942 49.1473L59.9957 10.9347C60.0042 4.93382 55.1453 0.062196 49.1445 0.0537162Z" fill="#00C300"/>
<path d="M51.8523 27.3614C51.8523 17.587 42.0526 9.63442 30.0085 9.63442C17.9644 9.63442 8.16318 17.587 8.16318 27.3614C8.16318 36.1238 15.9349 43.463 26.4328 44.8523C27.1437 45.0049 28.1118 45.3215 28.3577 45.9306C28.5782 46.4818 28.5019 47.3468 28.4284 47.905C28.4284 47.905 28.1726 49.4469 28.1175 49.7748C28.0228 50.3274 27.6779 51.9343 30.0099 50.9521C32.3418 49.9698 42.5896 43.545 47.1715 38.2692C50.3373 34.7981 51.8552 31.2748 51.8552 27.3628L51.8523 27.3614ZM21.4566 33.1771H17.1164C16.4847 33.1771 15.9716 32.664 15.9716 32.0309V23.3504C15.9716 22.7187 16.4861 22.2057 17.1164 22.2057C17.7467 22.2057 18.2612 22.7187 18.2612 23.3504V30.8861H21.4566C22.0884 30.8861 22.6014 31.3992 22.6014 32.0309C22.6014 32.6626 22.0884 33.1771 21.4566 33.1771ZM25.9452 32.0309C25.9452 32.6626 25.4322 33.1771 24.8005 33.1771C24.1687 33.1771 23.6557 32.664 23.6557 32.0309V23.3504C23.6557 22.7187 24.1702 22.2057 24.8005 22.2057C25.4308 22.2057 25.9452 22.7187 25.9452 23.3504V32.0309ZM36.3937 32.0309C36.3937 32.5255 36.08 32.9623 35.6108 33.1163C35.492 33.1559 35.3705 33.1757 35.2475 33.1757C34.89 33.1757 34.548 33.0047 34.3317 32.7163L29.8841 26.659V32.0295C29.8841 32.6612 29.3711 33.1757 28.7379 33.1757C28.1048 33.1757 27.5917 32.6626 27.5917 32.0295V23.349C27.5917 22.8558 27.9069 22.4191 28.3747 22.2622C28.4934 22.2226 28.615 22.2028 28.7393 22.2028C29.0969 22.2028 29.4389 22.3739 29.6537 22.6608L34.1028 28.7181V23.3476C34.1028 22.7159 34.6172 22.2028 35.249 22.2028C35.8807 22.2028 36.3937 22.7159 36.3937 23.3476V32.0309ZM43.4164 26.5459C44.0495 26.5459 44.5626 27.0589 44.5626 27.6921C44.5626 28.3252 44.0495 28.8368 43.4164 28.8368H40.2223V30.8861H43.4164C44.0481 30.8861 44.5626 31.3992 44.5626 32.0309C44.5626 32.6626 44.0481 33.1771 43.4164 33.1771H39.0762C38.4458 33.1771 37.93 32.664 37.93 32.0309V23.3504C37.93 22.7187 38.4444 22.2057 39.0762 22.2057H43.4164C44.0495 22.2057 44.5626 22.7187 44.5626 23.3504C44.5626 23.9822 44.0495 24.4966 43.4164 24.4966H40.2223V26.5459H43.4164Z" fill="white"/>
</svg>
