<svg width="146" height="56" viewBox="0 0 146 56" fill="none" xmlns="http://www.w3.org/2000/svg">
<path fill-rule="evenodd" clip-rule="evenodd" d="M141.072 42.2766C138.224 42.2766 136.771 44.1559 136.544 44.4407C135.802 43.0749 134.494 42.2766 132.758 42.2766C130.253 42.2766 128.829 43.7296 128.599 43.9853C128.488 43.5867 127.974 42.5333 126.35 42.5333C125.896 42.5333 125.212 42.6762 125.155 42.6762C125.212 42.9887 125.525 44.4691 125.525 46.5187C125.525 47.8004 125.525 55.5159 125.525 55.5159H128.828V46.3481C128.883 46.291 130.111 45.038 131.589 45.038C133.1 45.038 133.812 46.1488 133.812 47.6575V55.5156H137.113V46.3477C137.199 46.2632 138.394 45.0377 139.903 45.0377C141.412 45.0377 142.095 46.1484 142.095 47.6572V55.5153H145.427V47.145C145.427 44.185 143.748 42.2766 141.072 42.2766ZM104.942 53.1244C102.692 53.1244 101.099 51.359 101.099 49.053C101.099 46.4903 102.92 44.9538 104.942 44.9538C106.024 44.9538 106.479 45.2673 107.192 45.2673C107.96 45.2673 108.387 44.8955 108.757 44.1556C108.985 43.7592 109.1 43.5009 109.1 43.5009C108.928 43.4148 107.278 42.2763 104.43 42.2763C100.272 42.2763 97.7965 45.267 97.7965 49.053C97.7965 53.2099 100.645 55.7994 104.43 55.7994C107.193 55.7994 108.843 54.6903 109.155 54.4626L108.017 52.214C107.761 52.3839 106.563 53.1244 104.942 53.1244ZM68.7849 42.2766C65.6246 42.2766 62.9764 44.8397 62.9764 49.0533C62.9764 53.3531 65.5681 55.7997 69.4119 55.7997C72.4858 55.7997 74.0793 54.4629 74.2793 54.3477C74.2793 54.3477 73.9664 53.8646 73.8816 53.7227C73.4536 53.0096 72.9705 52.7832 72.4287 52.7832C71.3466 52.7832 71.2057 53.238 69.7241 53.238C67.1907 53.238 66.3077 51.2742 66.2506 49.9654H74.7053C74.7053 49.6219 74.7053 49.1672 74.7053 48.9682C74.7053 44.9538 72.4013 42.2766 68.7849 42.2766ZM66.2506 47.6001C66.2506 46.1217 67.2752 44.7539 68.7556 44.7539C70.3781 44.7539 71.2615 46.1768 71.2892 47.6001H66.2506ZM80.3432 51.8724V38.3771C80.3432 36.8684 79.346 35.7005 77.7521 35.7005C77.6667 35.7005 77.0694 35.7005 77.0694 35.7005V53.1815C77.0694 54.8047 78.065 55.7994 79.8037 55.7994C81.9384 55.7994 82.5647 54.2913 82.5647 52.8403C82.4792 52.8964 82.0229 53.0686 81.5675 53.0686C80.7996 53.0687 80.3432 52.6407 80.3432 51.8724ZM58.3067 51.4161V45.0116H61.0687L62.0366 42.533H58.3067V38.6622C58.3067 38.6622 58.0229 38.6328 57.9942 38.6622C56.5409 38.6622 55.0041 39.2592 55.0041 42.505V42.5333H52.5843V45.0119H55.0041V52.5559C55.0041 54.6906 56.2852 55.8 58.0796 55.8C59.5313 55.8 61.4093 55.3746 61.4093 52.4994C61.2964 52.5562 60.584 53.01 59.8164 53.01C58.7337 53.0093 58.3067 52.3562 58.3067 51.4161ZM89.482 42.2766C86.3214 42.2766 83.6448 44.8397 83.6448 49.0533C83.6448 53.3531 86.2362 55.7997 90.1106 55.7997C93.1555 55.7997 94.749 54.4629 94.9487 54.3477C94.9487 54.3477 94.6636 53.8646 94.5784 53.7227C94.124 53.0096 93.6399 52.7832 93.0991 52.7832C92.0167 52.7832 91.8745 53.238 90.3941 53.238C87.8878 53.238 87.0051 51.2742 86.9483 49.9654H95.405C95.405 49.6219 95.405 49.1672 95.405 48.9682C95.4054 44.9538 93.0707 42.2766 89.482 42.2766ZM86.9193 47.6001C86.9193 46.1217 87.9736 44.7539 89.4256 44.7539C91.0488 44.7539 91.959 46.1768 91.9864 47.6001H86.9193ZM116.699 55.7994C112.657 55.7994 110.237 53.1522 110.237 49.053C110.237 44.9822 112.629 42.2763 116.699 42.2763C120.77 42.2763 123.164 44.9822 123.164 49.053C123.164 52.8964 120.971 55.7994 116.699 55.7994ZM116.699 53.267C118.721 53.267 119.89 51.5299 119.89 49.0533C119.89 46.5767 118.748 44.8113 116.699 44.8113C114.707 44.8113 113.51 46.5474 113.51 49.0533C113.51 51.4719 114.65 53.267 116.699 53.267Z" fill="#F57F26"/>
<path fill-rule="evenodd" clip-rule="evenodd" d="M10.5343 41.1088C8.54086 40.1699 6.88991 39.4311 6.88991 37.894C6.88991 36.7255 7.82907 35.9005 9.67902 35.9005C10.3341 35.9005 10.9046 35.9563 11.4732 36.0692C11.7583 36.1275 12.0695 36.1843 12.3559 36.1843C13.9504 36.1843 14.8606 35.2164 15.4582 33.3942L15.7146 32.6537C15.4582 32.5399 12.84 31.4024 9.42295 31.4024C3.98468 31.4024 1.10978 34.8746 1.10978 38.52C1.10978 40.3412 1.67934 41.6509 2.5611 42.7036C3.7299 44.0408 5.35312 44.9245 6.88926 45.6643C9.13784 46.7754 11.1581 47.572 11.1581 49.1943C11.1581 50.6472 9.6787 51.4722 7.6862 51.4722C4.92449 51.4722 2.53368 49.9073 2.2489 49.7371L0 53.9504C0.398307 54.1771 3.27418 56 8.05612 56C13.1248 56 16.9679 53.0951 16.9679 48.5973C16.9679 44.1556 13.4102 42.505 10.5343 41.1088ZM30.3784 43.1887L39.6014 31.8858H33.0256L25.681 41.6219H25.5652V31.8858H20.1569V55.7994H20.4978C22.8335 55.7994 25.6213 54.7183 25.6213 50.8175V45.3225H25.7087L33.1956 55.5159H40.0861L30.3784 43.1887Z" fill="#E71836"/>
<path fill-rule="evenodd" clip-rule="evenodd" d="M39.8855 6.2616C37.9788 6.63282 35.1594 8.36795 35.1894 11.4151C35.1894 14.1768 37.4673 15.8845 37.4673 19.5006C37.4673 22.2339 35.9576 24.0845 34.335 25.1104C34.9901 25.0536 35.7019 25.0249 36.4988 25.0249C38.1791 24.9956 39.1737 25.1662 39.2318 25.1662L47.7723 14.6883C45.4099 11.1316 42.6482 8.3973 39.8855 6.2616Z" fill="#E71836"/>
<path fill-rule="evenodd" clip-rule="evenodd" d="M47.0615 34.5898C48.1429 32.9088 48.2848 30.2348 48.3716 27.5299C48.4854 24.9956 48.9973 23.0882 52.3853 23.0605C53.1535 23.0605 53.8653 23.1733 55.1463 23.1733C60.1299 23.1475 63.3757 21.4372 65.3975 20.2978C61.2683 17.6799 55.2608 15.0027 47.7723 14.6883C47.2892 16.0567 43.5022 26.591 43.2181 27.4454C43.2745 27.4712 43.9305 28.2127 44.7552 29.6646C45.9804 31.6574 46.6348 33.3384 47.0615 34.5898Z" fill="#E71836"/>
<path fill-rule="evenodd" clip-rule="evenodd" d="M29.0393 25.9919C28.5856 25.9919 28.3846 25.7084 28.3272 25.1953C28.2718 24.7105 26.1357 5.15251 25.8216 2.2202C25.7652 1.76384 25.6516 0.995606 25.6516 0.709535C25.6516 0.255755 25.9658 0 26.307 0C27.3032 0 32.826 1.27974 38.6916 5.40827C37.0113 5.86302 33.9364 7.62911 33.9645 11.2739C33.9645 14.4629 36.2714 16.2558 36.2992 19.4738C36.2992 24.7105 30.2646 25.9919 29.0393 25.9919Z" fill="#F57F26"/>
<path fill-rule="evenodd" clip-rule="evenodd" d="M47.5721 35.9856C47.6588 36.2121 47.744 36.413 47.8307 36.5549C47.972 36.7813 48.142 36.8958 48.3429 36.8958C48.4851 36.8958 48.6554 36.839 48.8547 36.7545C49.2811 36.5549 67.1323 28.2404 69.8076 27.0184C70.2072 26.8178 70.9471 26.5043 71.2051 26.3615C71.4602 26.2186 71.5737 25.9912 71.5737 25.7938C71.5737 25.65 71.5166 25.5365 71.4602 25.4216C71.1193 24.8808 69.3819 23.0605 66.5057 21.0661C64.2287 22.3181 60.6401 24.2557 55.3186 24.2825C54.0072 24.2825 53.7234 24.199 52.8404 24.199C50.2222 24.2257 49.5949 25.3365 49.4798 27.6135C49.4798 28.0424 49.4533 28.6107 49.4533 29.2376C49.3675 31.2863 49.1111 34.1051 47.5721 35.9856Z" fill="#F57F26"/>
</svg>
