<svg width="44" height="44" viewBox="0 0 44 44" fill="none" xmlns="http://www.w3.org/2000/svg">
<circle cx="22" cy="22" r="15" stroke="white" stroke-width="2"/>
<path d="M22.25 14C22.9404 14 23.5 14.5596 23.5 15.25V21H29.25C29.9404 21 30.5 21.5596 30.5 22.25C30.5 22.9404 29.9404 23.5 29.25 23.5H23.5V29.25C23.5 29.9404 22.9404 30.5 22.25 30.5C21.5596 30.5 21 29.9404 21 29.25V23.5H15.25C14.5596 23.5 14 22.9404 14 22.25C14 21.5596 14.5596 21 15.25 21H21V15.25C21 14.5596 21.5596 14 22.25 14Z" fill="white"/>
</svg>
