<svg width="24" height="24" viewBox="0 0 24 24" fill="none" xmlns="http://www.w3.org/2000/svg">
<path d="M18.293 4.2932C18.6835 3.90267 19.3165 3.90267 19.707 4.2932C20.0973 4.68374 20.0975 5.31681 19.707 5.70726L13.4141 12.0002L19.707 18.2932C20.0973 18.6837 20.0975 19.3168 19.707 19.7073C19.3166 20.0977 18.6835 20.0976 18.293 19.7073L12 13.4143L5.70703 19.7073C5.31658 20.0977 4.68351 20.0976 4.29297 19.7073C3.90244 19.3167 3.90244 18.6837 4.29297 18.2932L10.5859 12.0002L4.29297 5.70726C3.90244 5.31674 3.90244 4.68372 4.29297 4.2932C4.68349 3.90267 5.31651 3.90267 5.70703 4.2932L12 10.5862L18.293 4.2932Z" fill="#222227"/>
</svg>
