<svg width="44" height="44" viewBox="0 0 44 44" fill="none" xmlns="http://www.w3.org/2000/svg">
<path fill-rule="evenodd" clip-rule="evenodd" d="M22.0103 9.5C15.0924 9.5 9.5 15.2291 9.5 22.3169C9.5 27.9825 13.0833 32.7783 18.0542 34.4757C18.6757 34.6033 18.9034 34.1999 18.9034 33.8606C18.9034 33.5634 18.8829 32.545 18.8829 31.4838C15.4028 32.2478 14.6781 29.9559 14.6781 29.9559C14.1188 28.4705 13.2902 28.0887 13.2902 28.0887C12.1512 27.3036 13.3732 27.3036 13.3732 27.3036C14.6366 27.3885 15.2996 28.6192 15.2996 28.6192C16.4179 30.5713 18.2199 30.0197 18.9449 29.6801C19.0483 28.8525 19.3799 28.2796 19.732 27.9614C16.9564 27.6642 14.0361 26.5609 14.0361 21.6377C14.0361 20.2372 14.5329 19.0914 15.3201 18.2002C15.1959 17.882 14.7608 16.5661 15.4446 14.8049C15.4446 14.8049 16.5009 14.4653 18.8826 16.1205C19.9023 15.84 20.954 15.6973 22.0103 15.6961C23.0667 15.6961 24.1435 15.8448 25.1378 16.1205C27.5198 14.4653 28.5761 14.8049 28.5761 14.8049C29.2599 16.5661 28.8245 17.882 28.7003 18.2002C29.5083 19.0914 29.9846 20.2372 29.9846 21.6377C29.9846 26.5609 27.0643 27.6429 24.2679 27.9614C24.7237 28.3645 25.1171 29.1283 25.1171 30.3379C25.1171 32.0567 25.0966 33.4361 25.0966 33.8603C25.0966 34.1999 25.3245 34.6033 25.9457 34.4759C30.9167 32.778 34.4999 27.9825 34.4999 22.3169C34.5204 15.2291 28.9075 9.5 22.0103 9.5Z" fill="#121212"/>
</svg>
