<svg width="44" height="44" viewBox="0 0 44 44" fill="none" xmlns="http://www.w3.org/2000/svg">
<path fill-rule="evenodd" clip-rule="evenodd" d="M22.0108 9C14.8161 9 9 14.9583 9 22.3295C9 28.2218 12.7266 33.2094 17.8964 34.9747C18.5427 35.1074 18.7795 34.6879 18.7795 34.335C18.7795 34.026 18.7582 32.9668 18.7582 31.8631C15.1389 32.6577 14.3852 30.2741 14.3852 30.2741C13.8036 28.7293 12.9418 28.3323 12.9418 28.3323C11.7572 27.5157 13.0281 27.5157 13.0281 27.5157C14.3421 27.604 15.0316 28.884 15.0316 28.884C16.1946 30.9141 18.0687 30.3405 18.8226 29.9873C18.9302 29.1266 19.2751 28.5308 19.6413 28.1998C16.7547 27.8908 13.7176 26.7433 13.7176 21.6232C13.7176 20.1667 14.2342 18.975 15.0529 18.0482C14.9237 17.7173 14.4713 16.3488 15.1823 14.5171C15.1823 14.5171 16.2809 14.164 18.7579 15.8854C19.8184 15.5936 20.9121 15.4452 22.0108 15.4439C23.1093 15.4439 24.2292 15.5986 25.2633 15.8854C27.7406 14.164 28.8392 14.5171 28.8392 14.5171C29.5503 16.3488 29.0975 17.7173 28.9683 18.0482C29.8086 18.975 30.3039 20.1667 30.3039 21.6232C30.3039 26.7433 27.2668 27.8686 24.3586 28.1998C24.8327 28.6191 25.2417 29.4134 25.2417 30.6715C25.2417 32.4589 25.2204 33.8935 25.2204 34.3347C25.2204 34.6879 25.4575 35.1074 26.1035 34.975C31.2733 33.2091 34.9999 28.2218 34.9999 22.3295C35.0212 14.9583 29.1838 9 22.0108 9Z" fill="#222227"/>
</svg>
