<svg width="21" height="22" viewBox="0 0 21 22" fill="none" xmlns="http://www.w3.org/2000/svg">
<path d="M9.78009 10.9985L0.800095 19.8652C0.753428 19.6118 0.760095 19.4452 0.760095 19.4452V2.55184C0.760095 2.55184 0.753428 2.38517 0.800095 2.13184L9.78009 10.9985Z" fill="#4285F4"/>
<path d="M14.4934 6.34539L9.78005 10.9987L0.800049 2.13205C0.873382 1.65205 1.12005 0.878719 1.91338 0.418719C3.12672 -0.274615 4.34005 0.485385 4.34005 0.485385L14.4934 6.34539Z" fill="#34A853"/>
<path d="M20.2405 10.999C20.2405 12.3924 18.9739 13.0657 18.9739 13.0657L14.4939 15.6524L9.78052 10.999L14.4939 6.3457L18.9739 8.93237C18.9739 8.93237 20.2405 9.6057 20.2405 10.999Z" fill="#FBBC04"/>
<path d="M14.4934 15.6524L4.34005 21.5124C4.34005 21.5124 3.12672 22.279 1.91338 21.579C1.12005 21.119 0.873382 20.3457 0.800049 19.8657L9.78005 10.999L14.4934 15.6524Z" fill="#EA4335"/>
</svg>
