<svg width="24" height="24" viewBox="0 0 24 24" fill="none" xmlns="http://www.w3.org/2000/svg">
<mask id="path-1-inside-1_1387_4759" fill="white">
<path d="M16 3.08447C19.3137 3.08447 22 5.77076 22 9.08447C22 9.84666 21.8559 10.5749 21.5967 11.2456C20.0199 15.6384 14.2567 19.6319 12.5071 20.7649C12.197 20.9657 11.803 20.9657 11.4929 20.7649C9.74305 19.632 3.97897 15.6385 2.40234 11.2456C2.14325 10.575 2 9.84653 2 9.08447C2 5.77076 4.68629 3.08447 8 3.08447C9.21545 3.08447 10.3463 3.44606 11.2913 4.06736C11.7171 4.34731 12.2829 4.34731 12.7087 4.06736C13.6537 3.44606 14.7846 3.08447 16 3.08447Z"/>
</mask>
<path d="M21.5967 11.2456L19.7311 10.5247L19.7224 10.5472L19.7143 10.5699L21.5967 11.2456ZM2.40234 11.2456L4.28478 10.57L4.27664 10.5473L4.26796 10.5249L2.40234 11.2456ZM12.5071 20.7649L13.5942 22.4437L12.5071 20.7649ZM11.4929 20.7649L10.4059 22.4438L11.4929 20.7649ZM16 3.08447V5.08447C18.2091 5.08447 20 6.87533 20 9.08447H22H24C24 4.66619 20.4183 1.08447 16 1.08447V3.08447ZM22 9.08447H20C20 9.59235 19.9043 10.0766 19.7311 10.5247L21.5967 11.2456L23.4622 11.9665C23.8074 11.0731 24 10.101 24 9.08447H22ZM21.5967 11.2456L19.7143 10.5699C19.0953 12.2942 17.5605 14.1201 15.7708 15.7483C14.026 17.3357 12.247 18.5506 11.42 19.0862L12.5071 20.7649L13.5942 22.4437C14.5169 21.8462 16.4943 20.4978 18.4626 18.707C20.3862 16.957 22.5212 14.5897 23.4791 11.9213L21.5967 11.2456ZM11.4929 20.7649L12.5799 19.0861C11.7528 18.5506 9.97354 17.3357 8.22848 15.7483C6.43859 14.1201 4.90362 12.2943 4.28478 10.57L2.40234 11.2456L0.519911 11.9212C1.4777 14.5899 3.61308 16.9572 5.53685 18.7072C7.50544 20.498 9.48315 21.8463 10.4059 22.4438L11.4929 20.7649ZM2.40234 11.2456L4.26796 10.5249C4.09544 10.0783 4 9.5939 4 9.08447H2H0C0 10.0992 0.19105 11.0716 0.536731 11.9664L2.40234 11.2456ZM2 9.08447H4C4 6.87533 5.79086 5.08447 8 5.08447V3.08447V1.08447C3.58172 1.08447 0 4.66619 0 9.08447H2ZM8 3.08447V5.08447C8.81294 5.08447 9.56368 5.32506 10.1925 5.73851L11.2913 4.06736L12.39 2.3962C11.129 1.56707 9.61795 1.08447 8 1.08447V3.08447ZM12.7087 4.06736L13.8075 5.73851C14.4363 5.32506 15.1871 5.08447 16 5.08447V3.08447V1.08447C14.382 1.08447 12.871 1.56707 11.61 2.3962L12.7087 4.06736ZM11.2913 4.06736L10.1925 5.73851C11.2852 6.45693 12.7148 6.45693 13.8075 5.73851L12.7087 4.06736L11.61 2.3962C11.8511 2.23769 12.1489 2.23769 12.39 2.3962L11.2913 4.06736ZM12.5071 20.7649L11.42 19.0862C11.7713 18.8586 12.2285 18.8586 12.5799 19.0861L11.4929 20.7649L10.4059 22.4438C11.3774 23.0728 12.6228 23.0727 13.5942 22.4437L12.5071 20.7649Z" fill="#222227" mask="url(#path-1-inside-1_1387_4759)"/>
</svg>
