<svg width="24" height="24" viewBox="0 0 24 24" fill="none" xmlns="http://www.w3.org/2000/svg">
<path d="M16 3.08447C19.3137 3.08447 22 5.77076 22 9.08447C22 9.84666 21.8559 10.5749 21.5967 11.2456C20.0199 15.6384 14.2567 19.6319 12.5071 20.7649C12.197 20.9657 11.803 20.9657 11.4929 20.7649C9.74305 19.632 3.97897 15.6385 2.40234 11.2456C2.14325 10.575 2 9.84653 2 9.08447C2 5.77076 4.68629 3.08447 8 3.08447C9.21545 3.08447 10.3463 3.44606 11.2913 4.06736C11.7171 4.34731 12.2829 4.34731 12.7087 4.06736C13.6537 3.44606 14.7846 3.08447 16 3.08447Z" fill="#222227"/>
</svg>
