<svg width="44" height="44" viewBox="0 0 44 44" fill="none" xmlns="http://www.w3.org/2000/svg">
<path d="M26.8889 33H30.5556C31.9 33 33 31.9 33 30.5556V20.6922C33 19.9711 32.6822 19.2867 32.1322 18.8222L23.5033 11.55C23.0633 11.1833 22.5378 11 22 11C21.4622 11 20.9367 11.1833 20.4967 11.55L11.8678 18.8222C11.3178 19.2867 11 19.9711 11 20.6922V30.5556C11 31.9 12.1 33 13.4444 33H17.1111C18.4556 33 19.5556 31.9 19.5556 30.5556V26.8889C19.5556 25.5322 20.6556 24.4444 22 24.4444C23.3444 24.4444 24.4444 25.5322 24.4444 26.8889V30.5556C24.4444 31.9 25.5444 33 26.8889 33ZM30.5556 30.5556H26.8889V27.0967C26.8889 24.5422 25.0189 22.2689 22.4767 22.0244C19.5556 21.7433 17.1111 24.0289 17.1111 26.8889V30.5556H13.4444V20.6922L22 13.4811L30.5556 20.6922V30.5556Z" fill="#222227"/>
</svg>
