<svg width="44" height="44" viewBox="0 0 44 44" fill="none" xmlns="http://www.w3.org/2000/svg">
<g clip-path="url(#clip0_1014_3798)">
<path d="M22 12.1609C25.2063 12.1609 25.5859 12.175 26.8469 12.2312C28.0188 12.2828 28.6516 12.4797 29.0734 12.6438C29.6313 12.8594 30.0344 13.1219 30.4516 13.5391C30.8734 13.9609 31.1313 14.3594 31.3469 14.9172C31.5109 15.3391 31.7078 15.9766 31.7594 17.1437C31.8156 18.4094 31.8297 18.7891 31.8297 21.9906C31.8297 25.1969 31.8156 25.5766 31.7594 26.8375C31.7078 28.0094 31.5109 28.6422 31.3469 29.0641C31.1313 29.6219 30.8687 30.025 30.4516 30.4422C30.0297 30.8641 29.6313 31.1219 29.0734 31.3375C28.6516 31.5016 28.0141 31.6984 26.8469 31.75C25.5813 31.8062 25.2016 31.8203 22 31.8203C18.7938 31.8203 18.4141 31.8062 17.1531 31.75C15.9813 31.6984 15.3484 31.5016 14.9266 31.3375C14.3688 31.1219 13.9656 30.8594 13.5484 30.4422C13.1266 30.0203 12.8688 29.6219 12.6531 29.0641C12.4891 28.6422 12.2922 28.0047 12.2406 26.8375C12.1844 25.5719 12.1703 25.1922 12.1703 21.9906C12.1703 18.7844 12.1844 18.4047 12.2406 17.1437C12.2922 15.9719 12.4891 15.3391 12.6531 14.9172C12.8688 14.3594 13.1313 13.9562 13.5484 13.5391C13.9703 13.1172 14.3688 12.8594 14.9266 12.6438C15.3484 12.4797 15.9859 12.2828 17.1531 12.2312C18.4141 12.175 18.7938 12.1609 22 12.1609ZM22 10C18.7422 10 18.3344 10.0141 17.0547 10.0703C15.7797 10.1266 14.9031 10.3328 14.1438 10.6281C13.3516 10.9375 12.6813 11.3453 12.0156 12.0156C11.3453 12.6813 10.9375 13.3516 10.6281 14.1391C10.3328 14.9031 10.1266 15.775 10.0703 17.05C10.0141 18.3344 10 18.7422 10 22C10 25.2578 10.0141 25.6656 10.0703 26.9453C10.1266 28.2203 10.3328 29.0969 10.6281 29.8563C10.9375 30.6484 11.3453 31.3188 12.0156 31.9844C12.6813 32.65 13.3516 33.0625 14.1391 33.3672C14.9031 33.6625 15.775 33.8687 17.05 33.925C18.3297 33.9812 18.7375 33.9953 21.9953 33.9953C25.2531 33.9953 25.6609 33.9812 26.9406 33.925C28.2156 33.8687 29.0922 33.6625 29.8516 33.3672C30.6391 33.0625 31.3094 32.65 31.975 31.9844C32.6406 31.3188 33.0531 30.6484 33.3578 29.8609C33.6531 29.0969 33.8594 28.225 33.9156 26.95C33.9719 25.6703 33.9859 25.2625 33.9859 22.0047C33.9859 18.7469 33.9719 18.3391 33.9156 17.0594C33.8594 15.7844 33.6531 14.9078 33.3578 14.1484C33.0625 13.3516 32.6547 12.6813 31.9844 12.0156C31.3188 11.35 30.6484 10.9375 29.8609 10.6328C29.0969 10.3375 28.225 10.1313 26.95 10.075C25.6656 10.0141 25.2578 10 22 10Z" fill="#222227"/>
<path d="M22 15.8359C18.5969 15.8359 15.8359 18.5969 15.8359 22C15.8359 25.4031 18.5969 28.1641 22 28.1641C25.4031 28.1641 28.1641 25.4031 28.1641 22C28.1641 18.5969 25.4031 15.8359 22 15.8359ZM22 25.9984C19.7922 25.9984 18.0016 24.2078 18.0016 22C18.0016 19.7922 19.7922 18.0016 22 18.0016C24.2078 18.0016 25.9984 19.7922 25.9984 22C25.9984 24.2078 24.2078 25.9984 22 25.9984Z" fill="#222227"/>
<path d="M29.8469 15.5921C29.8469 16.389 29.2 17.0312 28.4078 17.0312C27.6109 17.0312 26.9688 16.3843 26.9688 15.5921C26.9688 14.7953 27.6156 14.1531 28.4078 14.1531C29.2 14.1531 29.8469 14.8 29.8469 15.5921Z" fill="#222227"/>
</g>
<defs>
<clipPath id="clip0_1014_3798">
<rect width="24" height="24" fill="white" transform="translate(10 10)"/>
</clipPath>
</defs>
</svg>
