<svg width="19" height="24" viewBox="0 0 19 24" fill="none" xmlns="http://www.w3.org/2000/svg">
<path d="M15.6849 12.7034C15.6591 9.91011 18.0307 8.55118 18.1391 8.48791C16.796 6.57864 14.7142 6.31778 13.9827 6.29698C12.2342 6.11758 10.5382 7.31704 9.64755 7.31704C8.73911 7.31704 7.36755 6.31431 5.88933 6.34378C3.98711 6.37238 2.20755 7.44618 1.23155 9.11364C-0.782668 12.5136 0.719554 17.5099 2.64933 20.2581C3.61467 21.604 4.74266 23.1068 6.21911 23.054C7.66355 22.9959 8.20311 22.1561 9.94622 22.1561C11.6733 22.1561 12.18 23.054 13.6858 23.0202C15.236 22.9959 16.212 21.6682 17.1436 20.3101C18.2591 18.7674 18.7071 17.2482 18.7249 17.1702C18.6884 17.158 15.7142 16.0513 15.6849 12.7034Z" fill="white"/>
<path d="M12.8404 4.48911C13.6173 3.54185 14.1489 2.25311 14.0013 0.945312C12.8769 0.993846 11.4707 1.70365 10.6609 2.63011C9.94444 3.44651 9.30444 4.78465 9.46978 6.04305C10.7329 6.13491 12.0298 5.42165 12.8404 4.48911Z" fill="white"/>
</svg>
