<svg width="44" height="44" viewBox="0 0 44 44" fill="none" xmlns="http://www.w3.org/2000/svg">
<path d="M22.5 11C29.6818 11 35.5038 15.5904 35.5039 21.2529C35.5039 26.9156 29.6819 31.5058 22.5 31.5059C21.7118 31.5059 20.94 31.4509 20.1904 31.3447C19.4401 31.8735 15.1044 34.9184 14.6953 34.9756C14.6887 34.9781 14.5245 35.0394 14.3848 34.957C14.2425 34.8729 14.2686 34.6523 14.2686 34.6523C14.3126 34.3559 15.3927 30.6272 15.5918 29.9404C11.9305 28.1265 9.49609 24.9139 9.49609 21.2529C9.49617 15.5904 15.3182 11 22.5 11ZM13.3896 18.1895C12.9839 18.1895 12.6535 18.519 12.6533 18.9238C12.6533 19.3288 12.9837 19.6592 13.3896 19.6592H14.5605V24.1162C14.5608 24.5111 14.897 24.832 15.3105 24.832C15.724 24.8319 16.0603 24.511 16.0605 24.1162V19.6592H17.2314C17.6372 19.659 17.9678 19.3287 17.9678 18.9238C17.9676 18.5191 17.6372 18.1896 17.2314 18.1895H13.3896ZM19.748 18.1895C19.2596 18.2008 18.8754 18.5715 18.749 18.9307L16.9551 23.6533C16.7273 24.3609 16.926 24.6233 17.1328 24.7188C17.2824 24.7871 17.4449 24.8224 17.6094 24.8223C17.9222 24.8223 18.1615 24.6951 18.2334 24.4912L18.6055 23.5186H20.8926L21.2646 24.4912C21.3368 24.6954 21.5759 24.8222 21.8887 24.8223C22.0531 24.8224 22.2156 24.787 22.3652 24.7188C22.572 24.6236 22.7712 24.3615 22.543 23.6523L20.749 18.9307C20.6222 18.5708 20.2379 18.2005 19.748 18.1895ZM27.918 18.1895C27.5045 18.1896 27.1682 18.526 27.168 18.9395V24.0723C27.168 24.4859 27.5044 24.8221 27.918 24.8223C28.1168 24.822 28.3076 24.743 28.4482 24.6025C28.5888 24.4619 28.6686 24.2711 28.6689 24.0723V22.4346L28.9287 22.1748L30.6885 24.5059C30.7581 24.5989 30.8491 24.6748 30.9531 24.7266C31.0571 24.7782 31.172 24.8043 31.2881 24.8037C31.4509 24.804 31.6096 24.7509 31.7393 24.6523C31.818 24.5933 31.8847 24.5194 31.9346 24.4346C31.9845 24.3497 32.0169 24.2557 32.0303 24.1582C32.0443 24.0606 32.0384 23.9606 32.0137 23.8652C31.9889 23.77 31.9453 23.6809 31.8857 23.6025L30.0391 21.1553L31.749 19.4463C31.8666 19.3286 31.9259 19.1662 31.915 18.9893C31.9042 18.8139 31.8257 18.6449 31.6943 18.5137C31.5534 18.3729 31.365 18.292 31.1777 18.292C31.0173 18.292 30.8694 18.3514 30.7617 18.459L28.6689 20.5527V18.9395C28.6687 18.5259 28.3316 18.1895 27.918 18.1895ZM23.7969 18.1895C23.3749 18.1896 23.0315 18.526 23.0312 18.9395V24.0352C23.0313 24.4142 23.3537 24.7225 23.75 24.7227H26.1572C26.5537 24.7227 26.876 24.4143 26.876 24.0352C26.876 23.656 26.5537 23.3477 26.1572 23.3477H24.5635V18.9395C24.5633 18.5259 24.219 18.1895 23.7969 18.1895ZM20.498 22.1895H19L19.749 20.0605L20.498 22.1895Z" fill="#222227"/>
</svg>
