<svg width="44" height="44" viewBox="0 0 44 44" fill="none" xmlns="http://www.w3.org/2000/svg">
<path d="M22 9C14.8202 9 9 14.8203 9 22C9 29.1797 14.8202 35 22 35C29.1797 35 35 29.1797 35 22C34.9999 14.8203 29.1796 9 22 9ZM18.5316 28.2849H15.6773V19.0635H18.5316V28.2849ZM17.0908 17.8559C16.1586 17.8559 15.4029 17.0941 15.4029 16.1544C15.4029 15.2147 16.1587 14.4529 17.0908 14.4529C18.0229 14.4529 18.7786 15.2147 18.7786 16.1544C18.7786 17.0941 18.0229 17.8559 17.0908 17.8559ZM29.228 28.2849H26.3875V23.4444C26.3875 22.1169 25.8832 21.3758 24.8335 21.3758C23.691 21.3758 23.0941 22.1476 23.0941 23.4444V28.2849H20.3565V19.0635H23.0941V20.3055C23.0941 20.3055 23.9176 18.7823 25.8729 18.7823C27.8283 18.7823 29.228 19.9762 29.228 22.4461L29.228 28.2849Z" fill="#222227"/>
</svg>
