<svg width="44" height="44" viewBox="0 0 44 44" fill="none" xmlns="http://www.w3.org/2000/svg">
<path d="M26.55 28.37L28.37 26.55C28.5 26.42 28.565 26.2683 28.565 26.095C28.565 25.9217 28.5 25.77 28.37 25.64L23.95 21.1875C24.0367 20.9492 24.1017 20.7108 24.145 20.4725C24.1883 20.2342 24.21 19.9633 24.21 19.66C24.21 18.425 23.7712 17.3688 22.8938 16.4913C22.0163 15.6138 20.96 15.175 19.725 15.175C19.3567 15.175 18.9883 15.2238 18.62 15.3212C18.2517 15.4187 17.8942 15.5542 17.5475 15.7275L20.6025 18.7825L18.7825 20.6025L15.7275 17.5475C15.5542 17.8942 15.4187 18.2517 15.3212 18.62C15.2238 18.9883 15.175 19.3567 15.175 19.725C15.175 20.96 15.6138 22.0163 16.4913 22.8938C17.3688 23.7712 18.425 24.21 19.66 24.21C19.9417 24.21 20.2071 24.1883 20.4563 24.145C20.7054 24.1017 20.9492 24.0367 21.1875 23.95L25.64 28.37C25.77 28.5 25.9217 28.565 26.095 28.565C26.2683 28.565 26.42 28.5 26.55 28.37ZM22 35C20.2017 35 18.5117 34.6588 16.93 33.9762C15.3483 33.2937 13.9725 32.3675 12.8025 31.1975C11.6325 30.0275 10.7063 28.6517 10.0238 27.07C9.34125 25.4883 9 23.7983 9 22C9 20.2017 9.34125 18.5117 10.0238 16.93C10.7063 15.3483 11.6325 13.9725 12.8025 12.8025C13.9725 11.6325 15.3483 10.7063 16.93 10.0238C18.5117 9.34125 20.2017 9 22 9C23.7983 9 25.4883 9.34125 27.07 10.0238C28.6517 10.7063 30.0275 11.6325 31.1975 12.8025C32.3675 13.9725 33.2937 15.3483 33.9762 16.93C34.6588 18.5117 35 20.2017 35 22C35 23.7983 34.6588 25.4883 33.9762 27.07C33.2937 28.6517 32.3675 30.0275 31.1975 31.1975C30.0275 32.3675 28.6517 33.2937 27.07 33.9762C25.4883 34.6588 23.7983 35 22 35Z" fill="#0F6EFB"/>
</svg>
