<svg width="24" height="24" viewBox="0 0 24 24" fill="none" xmlns="http://www.w3.org/2000/svg">
<path d="M10 3C10.5523 3 11 3.44772 11 4C11 4.55228 10.5523 5 10 5H5V19H10C10.5523 19 11 19.4477 11 20C11 20.5523 10.5523 21 10 21H4C3.44772 21 3 20.5523 3 20V4C3 3.44772 3.44772 3 4 3H10ZM15.293 7.29297C15.6835 6.90244 16.3165 6.90244 16.707 7.29297L20.707 11.293C20.7548 11.3408 20.7976 11.3935 20.835 11.4502C20.8597 11.4877 20.8812 11.5266 20.9004 11.5664C20.9222 11.6116 20.9412 11.6584 20.9561 11.707C20.9623 11.7273 20.9668 11.748 20.9717 11.7686C20.9893 11.8429 21 11.9202 21 12C21 12.0563 20.9933 12.1112 20.9844 12.165C20.9772 12.2078 20.9688 12.2503 20.9561 12.292C20.9412 12.3407 20.9222 12.3874 20.9004 12.4326C20.8936 12.4468 20.8864 12.4607 20.8789 12.4746C20.851 12.5262 20.8184 12.5745 20.7822 12.6201C20.7586 12.6498 20.7345 12.6796 20.707 12.707L16.707 16.707C16.3165 17.0976 15.6835 17.0976 15.293 16.707C14.9024 16.3165 14.9024 15.6835 15.293 15.293L17.5859 13H10C9.44772 13 9 12.5523 9 12C9 11.4477 9.44772 11 10 11H17.5859L15.293 8.70703C14.9024 8.31651 14.9024 7.68349 15.293 7.29297Z" fill="#80808B"/>
</svg>
