<svg width="24" height="24" viewBox="0 0 24 24" fill="none" xmlns="http://www.w3.org/2000/svg">
<path d="M12 5C12.08 5 12.15 5.02 12.22 5.05L19.93 9L19.09 9.43L18.09 9.94L17 10.5L16.09 10.97L12.22 12.95C12.16 12.98 12.08 13 12 13C11.92 13 11.85 12.98 11.78 12.95L7.91 10.97L7 10.5L5.91 9.94L4.07 9L11.78 5.05C11.84 5.02 11.92 5 12 5ZM12 3C11.61 3 11.22 3.09 10.87 3.27L3.14 7.23C1.62 8.02 1.62 9.98 3.14 10.77L5 11.72V19C5 20.1 5.9 21 7 21H17C18.1 21 19 20.1 19 19V11.72L20 11.21V16C20 16.55 20.45 17 21 17C21.55 17 22 16.55 22 16V9C22 8.31 21.62 7.62 20.86 7.23L13.13 3.27C12.78 3.09 12.39 3 12 3ZM12 15C12.39 15 12.78 14.91 13.13 14.73L17 12.75V19H7V12.75L10.87 14.73C11.22 14.91 11.61 15 12 15Z" fill="#72727C"/>
</svg>
