<svg width="119" height="119" viewBox="0 0 119 119" fill="none" xmlns="http://www.w3.org/2000/svg">
<rect width="119" height="119" fill="white"/>
<path d="M79.468 110.908C79.468 112.812 70.7096 114.335 59.9044 114.335C49.0992 114.335 40.3408 112.788 40.3408 110.908C40.3408 109.027 49.0992 107.48 59.9044 107.48C70.7096 107.48 79.468 109.027 79.468 110.908Z" fill="#E1E1E7"/>
<path d="M54.9284 102.984V102.961C54.8355 102.775 54.7427 102.636 54.6499 102.473C54.5802 102.381 54.5338 102.265 54.4642 102.172C52.793 99.5257 50.8665 99.2007 50.3791 99.1543C50.3327 99.1543 50.2863 99.1543 50.2631 99.1543C50.2166 99.1543 50.1702 99.1543 50.147 99.1543C49.6364 99.2007 47.7331 99.5257 46.062 102.172C45.9923 102.288 45.9459 102.381 45.8763 102.473C45.7834 102.636 45.6906 102.798 45.5978 102.961C45.5978 102.961 45.5978 102.961 45.5978 102.984C44.0659 105.862 43.532 109.181 48.9169 109.553C49.4043 109.576 49.8453 109.599 50.2863 109.599C50.7041 109.599 51.1683 109.599 51.6557 109.553C57.0637 109.181 56.5067 105.862 54.9748 102.984H54.9284Z" fill="#AACEFF"/>
<path d="M50.2396 110.202C49.7986 110.202 49.3344 110.202 48.8469 110.156C46.5259 109.994 44.994 109.274 44.2977 108.044C43.5781 106.744 43.8103 104.934 44.994 102.705C45.0868 102.52 45.1797 102.357 45.2725 102.218L45.4814 101.87C47.2918 98.9686 49.4504 98.5972 50.0539 98.5508H50.2163C50.2163 98.5508 50.3092 98.5508 50.3324 98.5508C51.0055 98.5972 53.1641 98.9686 54.9745 101.847L55.1602 102.172C55.2762 102.381 55.3691 102.52 55.4387 102.682C55.4387 102.705 55.4851 102.752 55.4851 102.775C56.6457 104.957 56.901 106.744 56.1582 108.067C55.4619 109.32 53.93 110.04 51.609 110.179C51.1216 110.202 50.6573 110.226 50.2163 110.226L50.2396 110.202ZM50.2163 99.131V99.7577H50.1003C49.8218 99.7577 48.081 100.013 46.5491 102.473L46.3866 102.752C46.2706 102.938 46.2009 103.077 46.1313 103.216C45.435 104.539 44.7619 106.28 45.3886 107.417C45.8528 108.276 47.0597 108.763 48.9166 108.903C49.3808 108.926 49.8218 108.949 50.2396 108.949C50.6573 108.949 51.0983 108.949 51.5626 108.903C53.4426 108.763 54.6263 108.276 55.1138 107.417C55.7404 106.28 55.0673 104.516 54.3942 103.263C54.3014 103.077 54.2086 102.938 54.1389 102.822L53.93 102.473C52.3981 100.036 50.6573 99.7809 50.3324 99.7577L50.2396 99.131H50.2163Z" fill="#033882"/>
<path d="M74.5641 102.985V102.962C74.4713 102.776 74.3784 102.637 74.2856 102.474C74.216 102.382 74.1695 102.265 74.0999 102.173C72.4288 99.5266 70.5255 99.2017 70.0149 99.1553C69.9684 99.1553 69.922 99.1553 69.8988 99.1553C69.8524 99.1553 69.8292 99.1553 69.7828 99.1553C69.2721 99.2017 67.3689 99.5266 65.6977 102.173C65.6281 102.289 65.5817 102.382 65.512 102.474C65.4192 102.637 65.3263 102.799 65.2335 102.962C65.2335 102.962 65.2335 102.962 65.2335 102.985C63.7016 105.863 63.1678 109.182 68.5526 109.554C69.04 109.577 69.481 109.6 69.922 109.6C70.3398 109.6 70.804 109.6 71.2914 109.554C76.6763 109.182 76.1424 105.863 74.6105 102.985H74.5641Z" fill="#AACEFF"/>
<path d="M69.8753 110.203C69.4343 110.203 68.9701 110.203 68.4826 110.157C66.1616 109.994 64.6297 109.275 63.9566 108.045C63.2371 106.722 63.4692 104.934 64.6761 102.706C64.7922 102.497 64.885 102.335 64.9778 102.149L65.1635 101.847C66.9972 98.9461 69.1325 98.5747 69.736 98.5283H69.8985H69.9913C70.6644 98.5747 72.823 98.9461 74.6334 101.824L74.8191 102.149C74.9351 102.358 75.028 102.497 75.0976 102.66C75.0976 102.683 75.144 102.729 75.144 102.753C76.3046 104.934 76.5367 106.722 75.8171 108.045C75.1208 109.298 73.5889 109.994 71.2911 110.157C70.7805 110.18 70.3163 110.203 69.8753 110.203ZM69.852 99.1318V99.7585H69.736C69.4575 99.7585 67.7167 100.014 66.1616 102.474L65.9991 102.753C65.9063 102.915 65.8134 103.054 65.7438 103.217C65.0475 104.517 64.3744 106.281 65.0011 107.418C65.4653 108.277 66.6722 108.764 68.529 108.903C68.9933 108.927 69.4343 108.95 69.852 108.95C70.2698 108.95 70.7108 108.95 71.175 108.903C73.0551 108.764 74.2388 108.277 74.703 107.418C75.3297 106.281 74.6566 104.517 73.9835 103.24C73.8907 103.054 73.7978 102.915 73.7282 102.776L73.5193 102.428C71.9874 99.9906 70.2466 99.7585 69.9217 99.7121L69.8288 99.0854L69.852 99.1318Z" fill="#033882"/>
<path d="M77.2785 75.2236H43.484C43.484 75.2236 37.5654 89.6374 43.5537 99.1304C45.1088 101.823 48.1261 105.142 53.2789 104.19H53.3021C53.6967 104.121 54.1144 104.005 54.5322 103.889C55.8088 103.471 57.1086 102.798 57.7817 102.426C58.2459 102.125 59.1511 101.637 60.2884 101.614C60.3116 101.614 60.3581 101.614 60.3813 101.614C60.4045 101.614 60.4509 101.614 60.4741 101.614C61.6114 101.637 62.5166 102.125 62.9809 102.426C63.654 102.798 64.9305 103.471 66.2303 103.889C66.6481 104.028 67.0659 104.121 67.4605 104.19C67.4605 104.19 67.4605 104.19 67.4837 104.19C72.6364 105.142 75.6538 101.823 77.2089 99.1304C83.1972 89.6374 77.2785 75.2236 77.2785 75.2236Z" fill="white"/>
<path d="M69.248 104.957C68.6445 104.957 68.0178 104.887 67.3912 104.771C66.9502 104.678 66.5324 104.585 66.045 104.446C64.6291 103.982 63.2133 103.239 62.6794 102.937C62.2616 102.659 61.4493 102.241 60.4512 102.218C60.4512 102.218 60.428 102.218 60.3816 102.218C60.3352 102.218 60.2655 102.218 60.2655 102.218C59.3139 102.218 58.5248 102.659 58.1302 102.914C57.4339 103.309 56.0877 104.005 54.7414 104.446C54.254 104.585 53.8362 104.701 53.4417 104.771C47.8943 105.792 44.6913 102.288 43.0434 99.4095C36.9622 89.7771 42.6952 75.5723 42.9505 74.9688C43.0434 74.7367 43.2755 74.5742 43.5308 74.5742H77.3253C77.5806 74.5742 77.8127 74.7367 77.9055 74.9688C78.1608 75.5723 83.8938 89.7771 77.7895 99.4327C76.3504 101.939 73.6812 104.957 69.2944 104.957H69.248ZM60.4976 100.965C61.7974 100.988 62.8187 101.545 63.3293 101.87C63.7935 102.125 65.1165 102.845 66.4163 103.262C66.8341 103.378 67.2287 103.494 67.5769 103.541C72.4046 104.446 75.1899 101.336 76.6754 98.7828C81.8977 90.4966 77.7198 78.1486 76.861 75.8044H43.9254C43.0666 78.1254 38.8655 90.4966 44.0878 98.7596C45.3876 101.034 47.7319 103.703 51.5384 103.703C55.3449 103.703 52.6293 103.657 53.1863 103.541C53.5809 103.471 53.9523 103.378 54.3933 103.239C55.6699 102.821 56.9929 102.102 57.5035 101.823C57.9677 101.522 59.0122 100.965 60.2888 100.941C60.312 100.941 60.3584 100.941 60.3816 100.941C60.3816 100.941 60.4744 100.941 60.4976 100.941V100.965Z" fill="#033882"/>
<path d="M64.8395 100.849C64.8395 100.849 63.4005 101.893 59.9653 101.893H59.8957C56.4605 101.893 55.0215 100.849 55.0215 100.849" fill="white"/>
<path d="M59.9645 102.52C56.2973 102.52 54.719 101.382 54.6725 101.336C54.394 101.127 54.3476 100.756 54.5333 100.477C54.7422 100.199 55.1135 100.152 55.3921 100.338C55.3921 100.338 56.7615 101.266 59.8949 101.266C63.0283 101.266 64.4674 100.338 64.4674 100.338C64.7459 100.152 65.1405 100.199 65.3262 100.477C65.5351 100.756 65.4654 101.127 65.1869 101.336C65.1173 101.382 63.539 102.52 59.9413 102.52H59.9645Z" fill="#033882"/>
<path d="M37.4725 79.7041C36.6369 83.2553 33.9909 96.3692 39.84 97.3441C39.8632 97.3441 39.8864 97.3441 39.9096 97.3441C39.956 97.3441 40.0257 97.3441 40.0721 97.3441H40.3042C46.0372 97.7851 46.13 86.1334 46.13 86.1334" fill="white"/>
<path d="M40.6066 98.0171C40.4905 98.0171 40.3745 98.0171 40.2584 98.0171H40.0263C39.9567 98.0171 39.9103 97.9939 39.8406 97.9707C39.8406 97.9707 39.7478 97.9707 39.7246 97.9707C38.5409 97.785 37.5892 97.1583 36.8929 96.1138C34.2701 92.1913 35.9877 83.2552 36.8465 79.588C36.9161 79.263 37.2643 79.0541 37.5892 79.1237C37.9142 79.1934 38.1231 79.5415 38.0534 79.8665C37.4035 82.6053 35.5235 91.8199 37.9374 95.4175C38.448 96.1835 39.0979 96.6012 39.9335 96.7405L40.3513 96.7869C41.2333 96.8566 41.9992 96.578 42.6723 95.9746C45.4344 93.4446 45.5272 86.2494 45.5272 86.1797C45.5272 85.8316 45.8057 85.5763 46.1539 85.5763C46.5021 85.5763 46.7806 85.8548 46.7574 86.2029C46.7574 86.5279 46.6413 94.0017 43.5079 96.903C42.6723 97.6689 41.6975 98.0635 40.6066 98.0635V98.0171Z" fill="#033882"/>
<path d="M83.5696 79.7041C84.4052 83.2553 87.0512 96.3692 81.2022 97.3441C81.1789 97.3441 81.1557 97.3441 81.1325 97.3441C81.0861 97.3441 81.0165 97.3441 80.9701 97.3441H80.7379C75.005 97.7851 74.9121 86.1334 74.9121 86.1334" fill="white"/>
<path d="M80.4125 98.0176C79.3216 98.0176 78.3468 97.623 77.5112 96.8571C74.3546 93.9558 74.2617 86.482 74.2617 86.157C74.2617 85.8089 74.5402 85.5304 74.8652 85.5304C75.2134 85.5304 75.4919 85.8089 75.4919 86.1338C75.4919 86.2035 75.5847 93.3987 78.3468 95.9287C79.0199 96.5554 79.7858 96.8107 80.6678 96.741H81.016C81.9212 96.5554 82.5711 96.1376 83.0817 95.3716C85.4956 91.7508 83.5923 82.5594 82.9657 79.8206C82.896 79.4956 83.1049 79.1475 83.4299 79.0778C83.7548 79.0082 84.103 79.2171 84.1726 79.5421C85.0314 83.2093 86.749 92.1454 84.1262 96.0679C83.4299 97.1124 82.4782 97.7391 81.2945 97.9248H81.2017L80.7839 97.9712C80.6678 97.9712 80.5518 97.9712 80.4357 97.9712L80.4125 98.0176Z" fill="#033882"/>
<path d="M98.6792 9.37631C98.5863 8.9121 98.5167 8.65678 98.5167 8.65678C96.8223 10.2583 94.9423 11.326 93.1551 12.0223C93.0622 12.0687 92.9694 12.0919 92.8765 12.1384C92.8533 12.1384 92.8301 12.1384 92.8069 12.1616C88.2344 13.7399 82.2693 12.0687 79.5537 11.1171C79.2984 11.0243 79.0431 10.9314 78.7878 10.8386H78.7645C78.5556 10.7457 78.3468 10.6761 78.1379 10.5833C78.1147 10.5833 78.0914 10.5833 78.0914 10.5833C77.604 10.3976 77.1166 10.2351 76.6524 10.0726C76.6524 10.0726 76.6524 10.0726 76.6292 10.0726C76.4435 10.003 75.9793 9.84052 75.4687 9.65483C75.4222 9.65483 75.399 9.60841 75.3526 9.60841C75.0277 9.49236 74.7027 9.37631 74.3545 9.26025C74.3081 9.26025 74.2617 9.23704 74.2385 9.21383C74.2385 9.21383 74.2385 9.21383 74.2153 9.21383C73.8207 9.07457 73.519 8.95852 73.3797 8.9121C73.3797 8.9121 73.3565 8.9121 73.3333 8.9121H73.2869C72.7066 8.72641 72.1263 8.54073 71.5229 8.35505H71.43C71.43 8.33183 71.43 8.33183 71.43 8.33183C71.3836 8.33183 71.3372 8.33183 71.314 8.30862C71.1979 8.2622 71.1283 8.23899 71.1283 8.23899C67.786 7.28736 64.0723 6.63747 59.9873 6.61426C43.2757 6.66068 32.065 17.0126 32.065 17.0126C31.2062 17.8249 30.4403 18.6373 29.7208 19.4265C13.543 35.8131 24.4056 56.981 29.5119 64.8958C29.5119 64.8958 32.1579 69.0041 34.9663 74.2496H34.8735C34.5718 75.0156 34.4093 75.8744 34.4093 76.7796C34.4093 80.2612 36.8696 83.0928 39.9334 83.1161C42.2312 83.1161 44.2041 81.5377 45.0397 79.2631C45.8753 81.5377 47.8482 83.1393 50.146 83.1393C52.1885 83.1393 53.9757 81.8859 54.9506 80.0059C55.9022 81.8859 57.6894 83.1625 59.7319 83.1625C61.8209 83.1625 63.6313 81.8627 64.5829 79.913C65.5346 81.8627 67.3218 83.1625 69.4107 83.1625C71.7782 83.1625 73.7975 81.4681 74.6099 79.0774C75.399 81.4681 77.4183 83.1625 79.7858 83.1625C82.8496 83.1625 85.3331 80.354 85.3331 76.8492C85.3331 75.9904 85.1706 75.1316 84.8921 74.3889H84.7529C87.6077 69.1201 90.277 65.0119 90.277 65.0119C94.1531 59.0236 101.348 45.4918 97.6579 32.1226C99.1201 28.6642 99.7236 24.9738 99.8861 21.5618C100.211 16.8733 99.5844 12.6258 98.8416 9.44594L98.6792 9.37631Z" fill="#0F6EFB"/>
<path d="M79.6701 83.7196C77.558 83.7196 75.6083 82.4662 74.4942 80.5165C73.3801 82.4662 71.4304 83.6964 69.3182 83.6964C67.415 83.6964 65.6278 82.6983 64.4905 81.0271C63.3299 82.6751 61.5659 83.6731 59.6627 83.6731C57.7826 83.6731 56.0186 82.6983 54.8581 81.0736C53.6976 82.6751 51.9336 83.6499 50.0767 83.6499C47.9878 83.6499 46.0845 82.4662 44.9704 80.5861C43.8331 82.4662 41.9531 83.6267 39.8641 83.6267C38.193 83.6267 36.6379 82.884 35.4773 81.561C34.34 80.2612 33.7133 78.5204 33.7133 76.6868C33.7133 75.8048 33.8526 74.946 34.1543 74.1104C31.4619 69.0969 28.932 65.1744 28.9088 65.1279C23.5239 56.749 12.8007 35.4881 29.2105 18.8926C29.9532 18.0803 30.7424 17.2447 31.578 16.4787C31.694 16.3627 43.16 5.96439 59.918 5.91797C63.6549 5.94118 67.4382 6.49823 71.1519 7.5427C71.1983 7.5427 71.2215 7.5427 71.2679 7.56591L71.4768 7.63555C71.5232 7.63555 71.5697 7.63555 71.6161 7.65876H71.7089C72.266 7.84444 72.8462 8.03012 73.4033 8.21581C73.4033 8.21581 73.4497 8.21581 73.4729 8.21581C73.4729 8.21581 73.4729 8.21581 73.4961 8.21581C73.4961 8.21581 73.5193 8.21581 73.5425 8.21581L74.3549 8.49433L74.7495 8.6336C75.0048 8.72644 75.2601 8.81928 75.5154 8.91212C75.5386 8.91212 75.5851 8.93533 75.6547 8.95854L76.8152 9.37633C76.8152 9.37633 76.8616 9.37633 76.8616 9.39954L77.0473 9.46917C77.4419 9.60844 77.8597 9.7477 78.2543 9.91017C78.3007 9.91017 78.3471 9.93338 78.3703 9.9566L78.9274 10.1655C78.997 10.1655 79.0434 10.2119 79.1131 10.2351L79.763 10.4904C81.527 11.0939 85.0317 12.1384 88.4901 12.1384C91.9485 12.1384 91.4146 11.9295 92.5984 11.5117C92.5984 11.5117 92.7144 11.4885 92.7144 11.4653L92.9233 11.3724C94.873 10.6065 96.6138 9.5156 98.0993 8.12297C98.2617 7.9837 98.4938 7.91407 98.7027 7.9837C98.9116 8.05333 99.0741 8.21581 99.1205 8.4247C99.1205 8.4247 99.1901 8.68002 99.3062 9.16744C100.281 13.3221 100.652 17.4536 100.374 21.469C100.188 25.3916 99.4455 28.9428 98.1689 32.0298C101.859 45.8168 94.1535 59.8127 90.6719 65.2208C90.6487 65.2672 88.1187 69.1898 85.4031 74.18C85.6816 74.9924 85.8441 75.8744 85.8441 76.7564C85.8441 80.5629 83.0821 83.6731 79.6933 83.6731L79.6701 83.7196ZM74.471 78.3811C74.7495 78.3347 74.9816 78.5436 75.0512 78.7989C75.7708 81.0039 77.6044 82.4662 79.6237 82.4662C82.3393 82.4662 84.5443 79.913 84.5443 76.7796C84.5443 76.1065 84.4515 75.4566 84.2658 74.8531C84.2194 74.8067 84.1497 74.7603 84.1033 74.7139C83.9873 74.5746 83.9408 74.3657 83.9873 74.2033C83.9873 74.1568 84.0337 74.064 84.0569 74.0176C86.8886 68.7952 89.581 64.6405 89.6042 64.5941C93.0162 59.3021 100.583 45.5847 96.8923 32.1923C96.8459 32.053 96.8691 31.9137 96.9155 31.7977C98.1689 28.8035 98.9116 25.3219 99.0973 21.4458C99.3526 17.6625 99.0277 13.7399 98.1225 9.79412C96.7298 10.9546 95.1051 11.9063 93.3411 12.6026L93.0626 12.6954C93.0626 12.6954 92.9465 12.7419 92.9233 12.7419C91.6467 13.1829 90.1148 13.415 88.4437 13.415C84.7996 13.415 81.1556 12.3241 79.2988 11.6742L77.8597 11.1403H77.8133C77.3955 10.9779 77.0009 10.8386 76.6063 10.6993L76.3974 10.6297C76.3974 10.6297 76.351 10.6297 76.3278 10.6065L75.1905 10.2119C75.1905 10.2119 75.1209 10.1887 75.0976 10.1655C74.8191 10.0494 74.5638 9.97981 74.3085 9.88696L74.0764 9.79412C74.03 9.79412 74.0068 9.79412 73.9835 9.77091C73.9603 9.77091 73.9139 9.7477 73.8907 9.72449L73.1248 9.44596C73.0783 9.44596 73.0319 9.42275 72.9855 9.39954C72.4284 9.21386 71.8482 9.02818 71.2679 8.8657H71.2215C71.2215 8.8657 71.1983 8.84249 71.1751 8.84249L70.943 8.77286C70.9198 8.77286 70.8733 8.77286 70.8501 8.77286C67.2061 7.72839 63.5156 7.19455 59.8948 7.17134H59.8716C43.5778 7.21776 32.4832 17.2911 32.3671 17.4072C31.578 18.1731 30.7888 18.9623 30.0461 19.7746C14.2629 35.7667 24.6844 56.3776 29.8836 64.5013C29.9068 64.5477 32.576 68.7024 35.3613 73.9015C35.4541 74.0872 35.4541 74.3193 35.3613 74.505C35.3149 74.5746 35.2684 74.621 35.222 74.6675C34.9899 75.3174 34.8971 76.0137 34.8971 76.71C34.8971 78.2419 35.4077 79.6809 36.3593 80.7718C37.2877 81.8395 38.5179 82.4198 39.7945 82.4198C41.7674 82.4198 43.5546 81.0736 44.3205 78.9614C44.4134 78.7293 44.6455 78.5668 44.9008 78.5668C45.1561 78.5668 45.3882 78.7293 45.4811 78.9614C46.247 81.0736 48.0342 82.4198 50.0071 82.443C51.7479 82.443 53.3726 81.3753 54.2546 79.6345C54.3707 79.4256 54.5796 79.2864 54.8117 79.2864C55.0438 79.2864 55.2527 79.4256 55.3687 79.6345C56.2507 81.3753 57.8755 82.443 59.593 82.4662C61.357 82.4662 63.005 81.3521 63.887 79.5649C64.003 79.356 64.2119 79.2167 64.444 79.2167C64.6761 79.2167 64.885 79.356 65.0011 79.5649C65.8599 81.3521 67.5078 82.4662 69.2718 82.4662C71.2911 82.4662 73.148 81.0039 73.8675 78.8221C73.9603 78.5668 74.1924 78.4044 74.4478 78.4044L74.471 78.3811Z" fill="#033882"/>
<path d="M97.5192 32.6564C97.2407 32.6564 96.9853 32.4707 96.9157 32.169C95.8248 27.4108 92.2504 22.6063 92.204 22.5598C91.9951 22.2813 92.0647 21.9099 92.32 21.7011C92.5986 21.4922 92.9699 21.5618 93.1788 21.8171C93.3413 22.026 96.9621 26.9002 98.0995 31.9137C98.1691 32.2386 97.9602 32.5868 97.6352 32.6564C97.5888 32.6564 97.5424 32.6564 97.496 32.6564H97.5192Z" fill="#033882"/>
<path d="M89.6276 41.8482C89.6276 55.5888 76.5601 66.7299 60.452 66.7299C44.3439 66.7299 31.2764 55.5888 31.2764 41.8482C31.2764 28.1076 44.3439 16.9434 60.452 16.9434C76.5601 16.9434 89.6276 28.0844 89.6276 41.8482Z" fill="white"/>
<path d="M60.4517 67.3565C44.0187 67.3565 30.6494 55.9137 30.6494 41.8482C30.6494 27.7826 44.0187 16.3398 60.4517 16.3398C76.8847 16.3398 90.254 27.7826 90.254 41.8482C90.254 55.9137 76.8847 67.3565 60.4517 67.3565ZM60.4517 17.57C44.715 17.57 31.9028 28.4557 31.9028 41.8482C31.9028 55.2406 44.715 66.1264 60.4517 66.1264C76.1884 66.1264 89.0006 55.2406 89.0006 41.8482C89.0006 28.4557 76.1884 17.57 60.4517 17.57Z" fill="#033882"/>
<path d="M74.1926 34.0731C74.1926 35.9531 73.1017 37.485 71.7555 37.485C70.4093 37.485 69.3184 35.9531 69.3184 34.0731C69.3184 32.193 70.4093 30.6611 71.7555 30.6611C73.1017 30.6611 74.1926 32.193 74.1926 34.0731Z" fill="#033882"/>
<path d="M51.5383 34.0731C51.5383 35.9531 50.4474 37.485 49.1012 37.485C47.755 37.485 46.6641 35.9531 46.6641 34.0731C46.6641 32.193 47.755 30.6611 49.1012 30.6611C50.4474 30.6611 51.5383 32.193 51.5383 34.0731Z" fill="#033882"/>
<path d="M68.6688 42.7306C68.6688 49.392 65.0247 54.8001 60.5219 54.8001C56.019 54.8001 52.375 49.392 52.375 42.7306C52.375 36.0692 56.019 30.6611 60.5219 30.6611C65.0247 30.6611 68.6688 36.0692 68.6688 42.7306Z" fill="#AACEFF"/>
<path d="M60.5216 55.4035C55.6938 55.4035 51.748 49.7169 51.748 42.7305C51.748 35.7442 55.6938 30.0576 60.5216 30.0576C65.3494 30.0576 69.2952 35.7442 69.2952 42.7305C69.2952 49.7169 65.3726 55.4035 60.5216 55.4035ZM60.5216 31.2878C56.3669 31.2878 52.9782 36.4173 52.9782 42.7305C52.9782 49.0438 56.3669 54.1733 60.5216 54.1733C64.6763 54.1733 68.065 49.0438 68.065 42.7305C68.065 36.4173 64.6763 31.2878 60.5216 31.2878Z" fill="#033882"/>
<path d="M65.8605 41.1292C65.6748 40.7578 65.2802 40.5025 64.4911 40.5953C63.3073 40.8042 61.9611 40.9435 60.5221 40.9667C59.0598 40.9435 57.7368 40.8042 56.5531 40.5953C55.7639 40.5025 55.3693 40.7578 55.1836 41.1292C55.1372 41.2916 54.9283 41.988 55.3229 43.1021C55.4157 43.311 55.5086 43.5663 55.6479 43.8448C56.3442 45.3535 57.5743 47.5585 59.0598 48.3244C59.0598 48.3244 59.6633 48.7654 60.5221 48.7654C61.3576 48.7654 61.9611 48.3244 61.9843 48.3244C63.493 47.5353 64.6999 45.3535 65.3963 43.8448C65.5355 43.5663 65.6284 43.3342 65.7212 43.1021C66.1158 41.988 65.9069 41.2684 65.8605 41.1292Z" fill="#4686FF"/>
<path d="M60.5219 49.415C59.5934 49.415 58.9203 48.9972 58.7346 48.8811C57.1099 47.9759 55.8565 45.8173 55.0906 44.123C55.0906 44.123 55.0906 44.0998 55.0906 44.0765C54.9745 43.798 54.8585 43.5659 54.7656 43.3338C54.3014 42.0108 54.5335 41.152 54.6032 40.9199C54.8121 40.4557 55.2995 39.8058 56.6225 39.9915C57.8759 40.2004 59.1989 40.3164 60.5451 40.3629C61.8681 40.3397 63.1911 40.2236 64.398 40.0147C64.4212 40.0147 64.4676 40.0147 64.5141 40.0147C64.5837 40.0147 64.723 40.0147 64.839 40.0147C65.8603 40.0147 66.2781 40.5718 66.4405 40.9199C66.5798 41.2913 66.7655 42.1501 66.3245 43.3802C66.2316 43.6355 66.1156 43.8909 65.9763 44.1694C65.1872 45.887 63.9106 48.1152 62.2858 48.974C62.1466 49.0668 61.4503 49.4846 60.5451 49.4846L60.5219 49.415ZM56.2047 43.6355C57.2028 45.7941 58.3169 47.2796 59.3381 47.8134C59.4542 47.8831 59.9184 48.1848 60.4986 48.1848C61.0789 48.1848 61.5199 47.9063 61.5895 47.8599C61.636 47.8366 61.6824 47.8134 61.7288 47.7902C62.6804 47.2796 63.7945 45.7941 64.7926 43.6123C64.9319 43.3338 65.0247 43.0785 65.1175 42.8696C65.4425 41.9876 65.28 41.4305 65.2568 41.3377C65.2568 41.3377 65.1872 41.1984 64.7926 41.1984C64.398 41.1984 64.6301 41.1984 64.5373 41.1984C63.2839 41.4073 61.9145 41.5466 60.4986 41.5698C59.0596 41.5466 57.6902 41.4073 56.4136 41.1984C56.2975 41.1984 56.2511 41.1984 56.1815 41.1984C55.7869 41.1984 55.7173 41.3377 55.6941 41.4073C55.6941 41.4073 55.5316 41.9644 55.8565 42.916C55.9262 43.1017 56.0422 43.3338 56.1583 43.5891V43.6355H56.2047Z" fill="#033882"/>
<path d="M36.5218 40.8037C36.4754 40.8037 36.4289 40.8037 36.3825 40.7805C36.22 40.7109 36.1736 40.5252 36.2432 40.3627L38.0072 36.7419C38.0769 36.5794 38.2626 36.533 38.425 36.6026C38.5875 36.6723 38.6339 36.8579 38.5643 37.0204L36.8003 40.6412C36.7539 40.7573 36.6378 40.8269 36.5218 40.8269V40.8037Z" fill="#033882"/>
<path d="M39.0979 40.8506C39.0515 40.8506 39.0051 40.8506 38.9587 40.8274C38.7962 40.7578 38.7498 40.5721 38.8194 40.4096L40.5834 36.7888C40.653 36.6263 40.8387 36.5799 41.0012 36.6495C41.1637 36.7191 41.2101 36.9048 41.1405 37.0673L39.3765 40.6881C39.3301 40.8042 39.214 40.8506 39.0979 40.8506Z" fill="#033882"/>
<path d="M41.6517 40.8731C41.6052 40.8731 41.5588 40.8731 41.5124 40.8498C41.3499 40.7802 41.3035 40.5945 41.3731 40.4321L43.1371 36.8112C43.2068 36.6487 43.3924 36.6023 43.5549 36.672C43.7174 36.7416 43.7638 36.9273 43.6942 37.0897L41.9302 40.7106C41.8838 40.8266 41.7677 40.8731 41.6517 40.8731Z" fill="#033882"/>
<path d="M75.2601 40.8037C75.2136 40.8037 75.1672 40.8037 75.1208 40.7805C74.9583 40.7109 74.9119 40.5252 74.9815 40.3627L76.7455 36.7419C76.8152 36.5794 77.0008 36.533 77.1633 36.6026C77.3258 36.6723 77.3722 36.8579 77.3026 37.0204L75.5386 40.6412C75.4922 40.7573 75.3761 40.8269 75.2601 40.8269V40.8037Z" fill="#033882"/>
<path d="M77.8597 40.8506C77.8132 40.8506 77.7668 40.8506 77.7204 40.8274C77.5579 40.7578 77.5115 40.5721 77.5811 40.4096L79.3451 36.7888C79.4148 36.6263 79.6005 36.5799 79.7629 36.6495C79.9254 36.7191 79.9718 36.9048 79.9022 37.0673L78.1382 40.6881C78.0918 40.8042 77.9757 40.8506 77.8597 40.8506Z" fill="#033882"/>
<path d="M80.4134 40.8731C80.367 40.8731 80.3205 40.8731 80.2741 40.8498C80.1116 40.7802 80.0652 40.5945 80.1348 40.4321L81.8988 36.8112C81.9685 36.6487 82.1542 36.6023 82.3166 36.672C82.4791 36.7416 82.5255 36.9273 82.4559 37.0897L80.6919 40.7106C80.6455 40.8266 80.5294 40.8731 80.4134 40.8731Z" fill="#033882"/>
</svg>
