<svg width="44" height="44" viewBox="0 0 44 44" fill="none" xmlns="http://www.w3.org/2000/svg">
<path d="M20.6426 11.1421C25.8893 11.1421 30.1426 15.3954 30.1426 20.6421C30.1426 22.815 29.411 24.816 28.1836 26.4166L32.4912 30.7242C32.9794 31.2123 32.9794 32.0036 32.4912 32.4917C32.0031 32.9799 31.2118 32.9799 30.7236 32.4917L26.416 28.1841C24.8156 29.4111 22.815 30.1421 20.6426 30.1421C15.3959 30.1421 11.1426 25.8888 11.1426 20.6421C11.1426 15.3954 15.3959 11.1421 20.6426 11.1421ZM20.6426 13.6421C16.7766 13.6421 13.6426 16.7761 13.6426 20.6421C13.6426 24.5081 16.7766 27.6421 20.6426 27.6421C24.5086 27.6421 27.6426 24.5081 27.6426 20.6421C27.6426 16.7761 24.5086 13.6421 20.6426 13.6421Z" fill="#121212"/>
</svg>
