<svg width="18" height="20" viewBox="0 0 18 20" fill="none" xmlns="http://www.w3.org/2000/svg">
<path d="M15 0C16.6569 0 18 1.34315 18 3C18 4.65685 16.6569 6 15 6C14.3575 6 13.7635 5.79608 13.2754 5.45215L5.98535 9.70605C5.99476 9.80278 6 9.90081 6 10C6 10.0992 5.99476 10.1972 5.98535 10.2939L13.2754 14.5469C13.7634 14.2031 14.3577 14 15 14C16.6569 14 18 15.3431 18 17C18 18.6569 16.6569 20 15 20C13.3431 20 12 18.6569 12 17C12 16.9008 12.0052 16.8028 12.0146 16.7061L4.72363 12.4521C4.23563 12.7958 3.64222 13 3 13C1.34315 13 0 11.6569 0 10C0 8.34315 1.34315 7 3 7C3.64202 7 4.23571 7.20342 4.72363 7.54688L12.0146 3.29395C12.0052 3.19722 12 3.09919 12 3C12 1.34315 13.3431 0 15 0Z" fill="#72727C"/>
</svg>
