<svg width="24" height="24" viewBox="0 0 24 24" fill="none" xmlns="http://www.w3.org/2000/svg">
<path d="M19 12.9998C19.5522 12.9998 19.9998 13.4476 20 13.9998C20 14.552 19.5523 14.9998 19 14.9998H7.13574L10.7686 19.3591C11.122 19.7833 11.0647 20.4147 10.6406 20.7683C10.2164 21.1218 9.58502 21.0646 9.23145 20.6404L4.23145 14.6404C3.98323 14.3424 3.93027 13.9272 4.09473 13.5759C4.25937 13.2247 4.61209 12.9998 5 12.9998H19ZM13.3594 3.2312C13.7835 2.87789 14.415 2.9352 14.7686 3.35913L19.7686 9.35913C20.0169 9.65709 20.0696 10.0723 19.9053 10.4236C19.7407 10.775 19.388 10.9998 19 10.9998H5C4.44772 10.9998 4 10.552 4 9.99976C4.0002 9.44764 4.44784 8.99976 5 8.99976H16.8643L13.2314 4.64038C12.8781 4.21614 12.9353 3.58472 13.3594 3.2312Z" fill="#A2A2AE"/>
</svg>
