<svg width="80" height="28" viewBox="0 0 80 28" fill="none" xmlns="http://www.w3.org/2000/svg">
<g clip-path="url(#clip0_246_105)">
<path d="M28.9356 6.25589C31.7913 6.93096 33.8668 8.27534 35.948 9.61781C36.6475 10.0704 37.347 10.523 38.0754 10.9469C39.117 11.5548 40.2469 12.1129 41.5921 12.4236C42.6337 12.6614 43.7868 12.7726 45.1089 12.7055C48.1049 12.5425 51.564 11.3995 54.8886 9.95151C56.2858 9.34356 57.6617 8.68192 59.0242 7.97808L66.2826 20.5263C60.1811 23.589 55.1212 22.4038 51.5141 21.5581C48.6584 20.883 46.5829 19.5386 44.5017 18.1962C43.8021 17.7436 43.1046 17.291 42.3743 16.8671C41.3327 16.2592 40.2027 15.7011 38.8575 15.3904C37.8159 15.1526 36.6648 15.0414 35.3407 15.1085C32.3448 15.2715 28.8856 16.4145 25.561 17.8625C24.1639 18.4704 22.788 19.1321 21.4274 19.8359L14.169 7.28767C20.4012 4.41096 25.3304 5.41014 28.9375 6.25589H28.9356Z" fill="#121212"/>
<path d="M64.4589 4.83863L60.1081 7.34712L67.3665 19.8953L71.7173 17.3869L64.4589 4.83863Z" fill="#121212"/>
<path d="M68.7713 2.36082L65.8041 4.07534L73.0625 16.6236L76.0297 14.909L68.7713 2.36082Z" fill="#121212"/>
<path d="M72.7051 0L71.1812 0.882192L78.4761 13.4899L80 12.6077L72.7051 0Z" fill="#121212"/>
<path d="M16.01 22.9619L20.3608 20.4534L13.1024 7.9052L8.75159 10.4137L16.01 22.9619Z" fill="#121212"/>
<path d="M11.5631 25.5222L14.5303 23.8077L7.27185 11.2575L4.30469 12.9721L11.5631 25.5203V25.5222Z" fill="#121212"/>
<path d="M7.2584 28L8.74583 27.1466L1.48742 14.5984L0 15.4518L7.2584 28Z" fill="#121212"/>
</g>
<defs>
<clipPath id="clip0_246_105">
<rect width="80" height="28" fill="white"/>
</clipPath>
</defs>
</svg>
